<svg xmlns="http://www.w3.org/2000/svg" width="310" height="310" viewBox="0 0 310 310">
  <g id="logo_sushiMarket" transform="translate(-300)">
    <rect id="SushiMarketBG" width="310" height="310" transform="translate(300)" fill="#262626"/>
    <g id="SushiMarketText" transform="translate(314.208 214.99)">
      <path id="Tracé_401" data-name="Tracé 401" d="M314.757,117.163a29.88,29.88,0,0,0,4.9-.491,35.275,35.275,0,0,0-11.763-16.666,6.836,6.836,0,0,1-.181-1.388,6.667,6.667,0,0,1,.766-2.909,14.985,14.985,0,0,1,11.63-5.063,21.445,21.445,0,0,1,2.916.224,5.41,5.41,0,0,1,.675,3,9.748,9.748,0,0,1-.5,3.136,11.541,11.541,0,0,0-5.208-1.343c-2.425,0-4.8.942-7.945,1.97,6.062,3.226,10.28,9.271,13.02,16.754a9.953,9.953,0,0,1-2.516,4.745,26.1,26.1,0,0,1-9.474,2.284c-2.874,0-5.117-1.073-5.117-4.164a10.794,10.794,0,0,1,.179-1.972A18.647,18.647,0,0,0,314.757,117.163Z" transform="translate(-305.958 -89.48)" fill="#f34e2f"/>
      <path id="Tracé_402" data-name="Tracé 402" d="M318,101.542a73.8,73.8,0,0,0-.808-11.2,12.464,12.464,0,0,1,5.613,1.209,19.235,19.235,0,0,1,.091,2.284,82.171,82.171,0,0,1-2.831,21.185,23.558,23.558,0,0,0,9.968,3A114.064,114.064,0,0,0,332.552,97.2a23.638,23.638,0,0,0-.766-6.584c3.548.267,5.3,3.045,5.3,8.241,0,4.927-1.526,12-4.757,21.366a14.478,14.478,0,0,1-5.3.9,32.543,32.543,0,0,1-11.267-2.463A60.367,60.367,0,0,0,318,101.542Z" transform="translate(-292.386 -89.895)" fill="#f34e2f"/>
      <path id="Tracé_403" data-name="Tracé 403" d="M335.481,117.163a29.906,29.906,0,0,0,4.9-.491,35.278,35.278,0,0,0-11.766-16.666,7.018,7.018,0,0,1-.179-1.388,6.7,6.7,0,0,1,.763-2.909,15,15,0,0,1,11.63-5.063,21.481,21.481,0,0,1,2.919.224,5.411,5.411,0,0,1,.672,3,9.75,9.75,0,0,1-.494,3.136,11.541,11.541,0,0,0-5.208-1.343c-2.425,0-4.8.942-7.946,1.97,6.059,3.226,10.28,9.271,13.018,16.754a9.93,9.93,0,0,1-2.513,4.745,26.112,26.112,0,0,1-9.474,2.284c-2.874,0-5.117-1.073-5.117-4.164a10.591,10.591,0,0,1,.179-1.972A18.633,18.633,0,0,0,335.481,117.163Z" transform="translate(-277.263 -89.48)" fill="#f34e2f"/>
      <path id="Tracé_404" data-name="Tracé 404" d="M338.113,101.811a62.983,62.983,0,0,0-.9-11.465,14.215,14.215,0,0,1,5.971,1.209c-.315,5.105-.675,9.674-1.169,13.571a70.143,70.143,0,0,1,9.653-1.388c.179-2.2.272-4.211.272-6.093a45.7,45.7,0,0,0-.451-6.539c2.783,0,4.714.491,5.883,1.655-.451,4.166-.944,7.838-1.529,11.11,2.47.312,4.044,1.118,4.717,2.463-.584-.045-1.214-.045-1.843-.045-1.166,0-2.2.045-3.322.136-1.617,8.732-3.637,13.883-5.971,15.586.987-5.687,1.617-10.7,2.02-15.14a32.662,32.662,0,0,0-8.172,2.509,6.178,6.178,0,0,1-1.526-2.463c-1.123,8.468-2.873,13.483-5.029,15.095A184.191,184.191,0,0,0,338.113,101.811Z" transform="translate(-263.365 -89.895)" fill="#f34e2f"/>
      <path id="Tracé_405" data-name="Tracé 405" d="M349.632,101.811a62.977,62.977,0,0,0-.9-11.465,14.355,14.355,0,0,1,5.971,1.209c-1.166,17.961-3.1,27.948-6.512,30.456A165.182,165.182,0,0,0,349.632,101.811Z" transform="translate(-247.477 -89.895)" fill="#f34e2f"/>
      <path id="Tracé_406" data-name="Tracé 406" d="M383.326,108.181a82.847,82.847,0,0,0-.763-11.692,85.1,85.1,0,0,1-10.1,24.993,8.387,8.387,0,0,1-4.178-1.388,150.716,150.716,0,0,0-2.6-23.7c-1.753,15.095-4.311,23.608-7.094,25.666q2.558-21.365,3.412-30.5a12.026,12.026,0,0,1,5.344-1.254c2.513,6.765,3.455,18.185,3.455,25.8,5.344-10.526,8.442-18.273,9.25-25.084a12.079,12.079,0,0,1,2.156-.179,8.1,8.1,0,0,1,3.548.763,143.076,143.076,0,0,1,1.03,15.407c0,8.6-1.435,13.526-4.218,14.737A107.519,107.519,0,0,0,383.326,108.181Z" transform="translate(-233.089 -89.948)" fill="#fff"/>
      <path id="Tracé_407" data-name="Tracé 407" d="M388.272,90.2c.136,0,.315.045.448.045a125.879,125.879,0,0,0,3.143,20.067c2.156.315,3.458,1.03,4.042,2.194a31.121,31.121,0,0,0-3.548-.134,62.207,62.207,0,0,0,3.188,9.047,3.324,3.324,0,0,1-1.168.179c-2.874,0-4.8-2.955-6.062-8.778a33.916,33.916,0,0,0-8.8,2.909,11.232,11.232,0,0,1-.851-1.834c-.677,2.509-1.3,5.284-1.979,8.105a6.516,6.516,0,0,1-4.445-2.284c4-12.72,7.948-22.127,12.035-28.129A8.366,8.366,0,0,1,388.272,90.2Zm-8.892,20.961a50.635,50.635,0,0,1,8.353-.985,127.3,127.3,0,0,1-2.156-15.855A87.848,87.848,0,0,0,379.38,111.156Z" transform="translate(-214.183 -90.104)" fill="#fff"/>
      <path id="Tracé_408" data-name="Tracé 408" d="M402.673,92.577a13.726,13.726,0,0,1,.987,5.06c0,.761-.179,1.614-.179,2.375a15.94,15.94,0,0,1-8.713,4.345q3.033,11.958,8.756,17.334a8.184,8.184,0,0,1-1.481.136c-6.87,0-9.386-9.81-10.552-16.664a8.434,8.434,0,0,1,1.393-3.181c3.949-1.028,6.555-3.045,7.721-6.09a17.268,17.268,0,0,0-6.555-1.3,24.684,24.684,0,0,0-3.052.224c-1.078,16.037-3.188,25.172-6.241,27.456a239.285,239.285,0,0,0,1.705-26.741l-1.347.315a7.567,7.567,0,0,1-.942-3.763,9.5,9.5,0,0,1,.224-1.927C392.793,90.429,398.5,91.232,402.673,92.577Z" transform="translate(-197.66 -90.157)" fill="#fff"/>
      <path id="Tracé_409" data-name="Tracé 409" d="M399.666,108.531c-1.166,7.523-2.783,12-4.805,13.48a182.876,182.876,0,0,0,1.35-20.2,62.852,62.852,0,0,0-.856-11.465,14.526,14.526,0,0,1,5.973,1.209c-.36,5.105-.72,9.674-1.214,13.571a29.83,29.83,0,0,0,7.678-14.11,5.685,5.685,0,0,1,.854-.045,7.377,7.377,0,0,1,4.085,1.345c-1.75,5.554-5.656,10.211-11.582,13.931,7.137,3.09,10.686,6.582,10.686,10.435a9.371,9.371,0,0,1-2.246,5.687C408.692,116.815,405.413,112.2,399.666,108.531Z" transform="translate(-182.862 -89.895)" fill="#fff"/>
      <path id="Tracé_410" data-name="Tracé 410" d="M404.58,111.85c0-7.929,1.3-14.2,3.951-19.261a24.39,24.39,0,0,1,10.325-2.151,35.422,35.422,0,0,1,3.682.224,5.767,5.767,0,0,1,.272,1.97,7.956,7.956,0,0,1-1.707,4.841,15.106,15.106,0,0,0-10.011-3.226,34.946,34.946,0,0,0-2.337,11.153,15.448,15.448,0,0,0,9.341-3.942,7.108,7.108,0,0,1,1.617,4.257,16.97,16.97,0,0,1-6.512,1.476,11.272,11.272,0,0,1-4.49-.851,7.389,7.389,0,0,0-.179,2.063c0,2.06.133,4.478.224,6.582a20.379,20.379,0,0,0,9.922,2.509,15.994,15.994,0,0,0,3.188-.312,8.326,8.326,0,0,1-7.812,4.257,14.254,14.254,0,0,1-9.2-3Q404.578,114.94,404.58,111.85Z" transform="translate(-169.404 -89.767)" fill="#fff"/>
      <path id="Tracé_411" data-name="Tracé 411" d="M423.166,92.2c-.088-.672-.222-1.3-.358-1.881a4.829,4.829,0,0,1,.763-.043,6.583,6.583,0,0,1,4.536,1.788c5.117.045,8.847.9,11.27,2.42a65.27,65.27,0,0,0-11.224,1.03q-1.681,23.178-6.241,26.605a168.915,168.915,0,0,0,1.75-21.857c0-1.343-.045-2.6-.091-3.763-2.47.537-4.939,1.164-7.588,1.924a11.333,11.333,0,0,1-1.39-5.282C417.734,92.687,420.564,92.374,423.166,92.2Z" transform="translate(-155.54 -89.999)" fill="#fff"/>
    </g>
    <g id="SushiMarketMaki" transform="translate(379.379 43.064)">
      <path id="Tracé_412" data-name="Tracé 412" d="M410.085,160.954c-7.769,0-15.545-1.416-21.481-4.249L342.91,134.88c-4.936-2.356-8.139-5.508-9.2-9h-.343l-.079-1.788V63.583c-.036-4.474,3.334-8.575,9.484-11.53l45.4-21.822c11.794-5.671,31.041-5.671,42.911,0l45.694,21.819c6.181,2.95,9.6,7.044,9.62,11.525l0,62.31H486c-1.023,3.489-4.187,6.639-9.088,8.995l-45.4,21.824C425.618,159.535,417.856,160.954,410.085,160.954Zm-73.22-37.472.067.408c.329,2.847,3,5.6,7.521,7.764l45.694,21.822c11.015,5.263,28.88,5.26,39.816,0l45.4-21.822c4.483-2.153,7.111-4.905,7.4-7.743l.06-.6V63.59c-.019-2.99-2.785-6.019-7.588-8.313L429.536,33.456c-11.012-5.26-28.875-5.26-39.818,0l-45.4,21.824c-4.762,2.289-7.481,5.311-7.454,8.291Z" transform="translate(-333.288 -7.094)" fill="#3fd5ae"/>
      <g id="Groupe_75" data-name="Groupe 75" transform="translate(0 54.717)">
        <g id="Groupe_70" data-name="Groupe 70">
          <path id="Tracé_413" data-name="Tracé 413" d="M356.813,58.422l-14.169-6.768c-5.706-2.723-8.575-6.312-8.6-9.9h0v60.512h.079c.36,3.126,2.881,6.2,7.552,8.661C350.652,103,359.382,93.92,363.917,89.68,369.74,84.234,375.485,67.992,356.813,58.422Z" transform="translate(-332.25 -39.968)" fill="#f34e2f"/>
          <path id="Tracé_414" data-name="Tracé 414" d="M342.7,113.755a1.785,1.785,0,0,1-.832-.207c-6.055-3.193-7.948-6.849-8.42-9.519a1.69,1.69,0,0,1-.165-.725V42.793a1.789,1.789,0,0,1,1.781-1.788h.007a1.791,1.791,0,0,1,1.789,1.774v.014l0,.1c.1,2.945,2.85,5.921,7.586,8.182l14.169,6.768.045.024c9.977,5.113,12.867,11.873,13.535,16.642a21.254,21.254,0,0,1-6.028,17.51c-1.5,1.4-3.458,3.338-5.737,5.587-4.683,4.624-10.514,10.375-16.549,15.7A1.777,1.777,0,0,1,342.7,113.755Zm-5.84-10.969a1.378,1.378,0,0,1,.067.312c.272,2.366,2.225,4.712,5.539,6.686,5.62-5.022,11.046-10.375,15.452-14.723,2.306-2.275,4.292-4.233,5.809-5.652a17.735,17.735,0,0,0,4.929-14.4c-.8-5.711-4.7-10.4-11.6-13.945L342.91,54.306a22.735,22.735,0,0,1-6.043-4.035Z" transform="translate(-333.288 -41.005)" fill="#fff"/>
        </g>
        <g id="Groupe_71" data-name="Groupe 71" transform="translate(40.089 31.723)">
          <path id="Tracé_415" data-name="Tracé 415" d="M398.952,58.012l-.579-.241c-10.855,2.482-24.311,1.586-33.315-2.714,15.307,7.109,12.338,24.554,7.972,30-3.412,4.252-12.6,13.821-22.179,23l14.208,6.784c6.131,2.928,14.329,4.268,22.365,4.054,10.12-10.924,22.568-23.438,30.914-32.569C427.8,75.98,418.874,52.932,398.952,58.012Z" transform="translate(-349.06 -53.271)" fill="#f34e2f"/>
          <path id="Tracé_416" data-name="Tracé 416" d="M386.819,121.742c-8.034,0-15.788-1.524-21.492-4.249l-14.21-6.787a1.79,1.79,0,0,1-.465-2.907c9.283-8.887,18.543-18.488,22.02-22.823,2-2.5,4.135-8.94,2.609-15.455A16.816,16.816,0,0,0,365.6,57.837c-.091-.041-.181-.086-.272-.129a1.788,1.788,0,0,1,1.524-3.236c.093.045.184.086.274.131,8.415,3.916,21.183,4.908,31.889,2.461a1.811,1.811,0,0,1,1.083.091l.041.019c9.107-2.113,17.2,1.133,21.752,8.723,4.483,7.481,3.98,17.017-1.192,22.673-4.3,4.707-9.631,10.247-15.271,16.108-5.282,5.489-10.743,11.167-15.655,16.471a1.789,1.789,0,0,1-1.264.572C387.944,121.735,387.379,121.742,386.819,121.742Zm-31.832-13.151,11.882,5.673c5.437,2.6,12.946,4.032,20.8,3.9,4.793-5.165,10.07-10.652,15.18-15.96,5.623-5.849,10.936-11.37,15.209-16.044,4.13-4.516,4.452-12.264.763-18.421C417,64.7,411.552,57.942,400.435,60.78a1.8,1.8,0,0,1-1.128-.079l-.057-.024a61.362,61.362,0,0,1-24.211.148,20.356,20.356,0,0,1,3.725,7.881c1.693,7.235-.436,14.935-3.3,18.507C372.137,91.362,363.724,100.13,354.987,108.591Z" transform="translate(-350.1 -54.308)" fill="#fff"/>
        </g>
        <g id="Groupe_72" data-name="Groupe 72" transform="translate(108.379)">
          <path id="Tracé_417" data-name="Tracé 417" d="M420.636,41.754h0c.019,3.589-2.8,7.175-8.468,9.9L382.475,65.929h0c26.171-12.5,45.5,10.812,32.219,25.7-5.976,6.7-19.194,19.547-35.206,35.524l32.681-15.71c5.284-2.54,8.062-5.83,8.4-9.174h.069V41.754Z" transform="translate(-377.699 -39.968)" fill="#f34e2f"/>
          <path id="Tracé_418" data-name="Tracé 418" d="M380.525,129.975a1.787,1.787,0,0,1-1.261-3.055c4.1-4.094,8.024-7.984,11.687-11.618,10.635-10.554,19.039-18.889,23.446-23.829,4.886-5.475,5.177-12.536.756-18.426-5.28-7.039-16.874-11.143-30.869-4.469a1.788,1.788,0,0,1-1.545-3.224L412.429,51.08c4.755-2.284,7.473-5.3,7.457-8.279l0-.007a1.788,1.788,0,0,1,1.784-1.788h0a1.787,1.787,0,0,1,1.786,1.779v.086l0,60.433a1.762,1.762,0,0,1-.15.718c-.644,3.913-3.935,7.473-9.333,10.068L381.3,129.8A1.778,1.778,0,0,1,380.525,129.975Zm39.363-40.2a19.554,19.554,0,0,1-2.821,4.078c-4.481,5.022-12.915,13.392-23.6,23.989q-2.039,2.021-4.183,4.149l23.14-11.124c4.483-2.156,7.111-4.905,7.4-7.745a1.755,1.755,0,0,1,.06-.315Zm1.788,13.528h0ZM398.782,61.61c8.508.188,15.312,4.071,19.232,9.29a20.091,20.091,0,0,1,1.874,3V50.35a22.6,22.6,0,0,1-5.907,3.954Z" transform="translate(-378.737 -41.005)" fill="#fff"/>
        </g>
        <g id="Groupe_73" data-name="Groupe 73" transform="translate(76.662 20.601)">
          <path id="Tracé_419" data-name="Tracé 419" d="M433.109,79.653c13.285-14.885-6.047-38.194-32.219-25.7h0l-15.7,7.547a38.453,38.453,0,0,1-8.05,2.714l.579.241c19.921-5.079,28.847,17.968,19.384,28.315-8.346,9.131-20.794,21.645-30.914,32.569,6.932-.186,13.745-1.526,19-4.054l12.715-6.112C413.915,99.2,427.133,86.352,433.109,79.653Z" transform="translate(-364.398 -48.596)" fill="#ff8973"/>
          <path id="Tracé_420" data-name="Tracé 420" d="M367.226,128.179a1.787,1.787,0,0,1-1.312-3c4.931-5.325,10.4-11.015,15.7-16.516,5.623-5.849,10.936-11.37,15.209-16.044,4.13-4.516,4.452-12.264.763-18.421-1.82-3.036-7.249-9.8-18.385-6.956a1.8,1.8,0,0,1-1.128-.079l-.579-.238a1.79,1.79,0,0,1,.286-3.4,36.659,36.659,0,0,0,7.671-2.58l15.705-7.55c15.827-7.554,29.116-2.659,35.276,5.547a17.536,17.536,0,0,1-.947,22.952h0c-4.481,5.022-12.915,13.392-23.6,23.989-3.66,3.629-7.581,7.519-11.682,11.613a1.793,1.793,0,0,1-.489.343L387,123.949c-5.256,2.525-12.259,4.03-19.726,4.23Zm21.268-64.733a18.566,18.566,0,0,1,12.159,8.909c4.483,7.481,3.98,17.017-1.192,22.673-4.3,4.707-9.631,10.247-15.271,16.108-4.2,4.371-8.52,8.859-12.586,13.182a42.6,42.6,0,0,0,13.845-3.594l12.445-5.981c4.025-4.016,7.874-7.833,11.472-11.4C420,92.787,428.406,84.452,432.812,79.511h0c4.886-5.475,5.177-12.536.756-18.426-5.28-7.039-16.873-11.143-30.869-4.469Zm10.447,52.779h0Z" transform="translate(-365.437 -49.644)" fill="#fff"/>
        </g>
        <g id="Groupe_74" data-name="Groupe 74" transform="translate(7.629 16.667)">
          <path id="Tracé_421" data-name="Tracé 421" d="M391.877,93.8c4.366-5.446,7.335-22.892-7.972-30L352.383,48.744c18.672,9.569,12.927,25.811,7.1,31.258-4.536,4.24-13.266,13.32-22.248,21.247.324.172.63.348.975.513L369.7,116.8C379.279,107.62,388.464,98.051,391.877,93.8Z" transform="translate(-335.448 -46.956)" fill="#ff8973"/>
          <path id="Tracé_422" data-name="Tracé 422" d="M370.737,119.623a1.806,1.806,0,0,1-.773-.174L338.48,104.414c-.25-.119-.482-.243-.713-.37l-.317-.169a1.79,1.79,0,0,1-.358-2.928c5.959-5.258,11.749-10.969,16.4-15.562,2.306-2.275,4.292-4.233,5.809-5.652a17.735,17.735,0,0,0,4.929-14.4c-.8-5.718-4.712-10.414-11.625-13.957a1.788,1.788,0,0,1,1.586-3.2l31.525,15.056a20.48,20.48,0,0,1,11.895,14.224c1.693,7.235-.436,14.935-3.3,18.507v0c-3.56,4.445-12.953,14.191-22.337,23.174A1.777,1.777,0,0,1,370.737,119.623Zm-29.3-17.761,28.952,13.826c8.98-8.644,17.765-17.773,21.13-21.969v0c2-2.494,4.135-8.938,2.609-15.452-1.252-5.353-4.6-9.326-9.934-11.8l-19.287-9.209a18.545,18.545,0,0,1,2.866,7.583,21.254,21.254,0,0,1-6.028,17.51c-1.5,1.4-3.458,3.338-5.737,5.587C351.836,92.047,346.759,97.055,341.437,101.862Z" transform="translate(-336.487 -47.994)" fill="#fff"/>
        </g>
      </g>
      <g id="Groupe_79" data-name="Groupe 79" transform="translate(0 18.885)">
        <g id="Groupe_78" data-name="Groupe 78">
          <g id="Groupe_77" data-name="Groupe 77">
            <g id="Groupe_76" data-name="Groupe 76">
              <path id="Tracé_423" data-name="Tracé 423" d="M474.961,52.634,429.27,30.812c-11.42-5.454-30.02-5.454-41.366,0l-45.4,21.824c-11.346,5.454-11.284,14.365.136,19.819l45.692,21.822c11.42,5.454,30.02,5.454,41.366,0l45.4-21.822c11.346-5.456,11.284-14.367-.136-19.821" transform="translate(-332.249 -24.949)" fill="#e6d8ce"/>
              <path id="Tracé_424" data-name="Tracé 424" d="M410.085,101.169c-7.769,0-15.545-1.416-21.481-4.249L342.91,75.1c-6.2-2.959-9.617-7.066-9.622-11.558-.007-4.464,3.362-8.544,9.484-11.484l45.4-21.822c11.794-5.671,31.041-5.671,42.911,0l45.694,21.819c6.2,2.959,9.615,7.066,9.62,11.561.007,4.464-3.362,8.544-9.481,11.484l-45.4,21.824C425.618,99.75,417.856,101.169,410.085,101.169ZM409.6,29.511c-7.209,0-14.408,1.314-19.878,3.942l-45.4,21.824c-4.743,2.28-7.461,5.287-7.457,8.258,0,2.993,2.769,6.033,7.588,8.334l45.694,21.822c11.015,5.263,28.88,5.26,39.816,0l45.4-21.822c4.743-2.28,7.461-5.291,7.457-8.26,0-3-2.769-6.035-7.585-8.334L429.536,33.456C424.03,30.825,416.807,29.511,409.6,29.511Z" transform="translate(-333.288 -25.978)" fill="#fff"/>
            </g>
          </g>
        </g>
      </g>
      <g id="Groupe_80" data-name="Groupe 80" transform="translate(38.209 42.342)">
        <path id="Tracé_425" data-name="Tracé 425" d="M406.739,36.565c-8.609,17.1-33.332,12.507-36.015,11.391a24.665,24.665,0,0,0-2.907-1.1c-1.5-.415-3.386-.6-7.526-.6-5.468,0-9.009,3.637-10.23,8.818,5.265,6.119,19.5,10.511,36.282,10.511,21.254,0,38.485-7.035,38.485-15.715C424.828,44.26,417.591,39.343,406.739,36.565Z" transform="translate(-348.273 -34.777)" fill="#f34e2f"/>
        <path id="Tracé_426" data-name="Tracé 426" d="M387.379,68.417c-17.043,0-31.815-4.371-37.634-11.134a1.79,1.79,0,0,1-.386-1.576c1.5-6.384,5.981-10.194,11.973-10.194,4.147,0,6.241.172,8,.658a21.222,21.222,0,0,1,2.64.971l.477.2c2.4.992,25.73,5.349,33.728-10.54a1.786,1.786,0,0,1,2.041-.93c12.171,3.117,19.437,8.737,19.437,15.04C427.655,60.729,409.963,68.417,387.379,68.417ZM353.086,55.626c5.547,5.539,19.1,9.214,34.293,9.214,21.953,0,36.7-7.2,36.7-13.929,0-4.23-6-8.563-15.4-11.215-9.782,16.847-34.515,12.226-37.6,10.948l-.484-.2a18.9,18.9,0,0,0-2.208-.823c-1.185-.327-2.778-.529-7.051-.529C357.328,49.09,354.364,51.458,353.086,55.626Z" transform="translate(-349.311 -35.815)" fill="#fff"/>
      </g>
      <g id="Groupe_81" data-name="Groupe 81" transform="translate(36.006 40.636)">
        <path id="Tracé_427" data-name="Tracé 427" d="M361.57,47.251c4.14,0,6.026.181,7.526.6,1.953-3.272,4.443-7.447,7.142-12-15.7,1.982-27.1,7.955-27.1,15.016a8.022,8.022,0,0,0,2.2,5.2C352.561,50.887,356.1,47.251,361.57,47.251Z" transform="translate(-347.349 -34.061)" fill="#ff8973"/>
        <path id="Tracé_428" data-name="Tracé 428" d="M352.381,58.9a1.79,1.79,0,0,1-1.357-.622,9.731,9.731,0,0,1-2.637-6.372c0-8,11.251-14.591,28.668-16.79a1.8,1.8,0,0,1,1.719.794,1.785,1.785,0,0,1,.041,1.893c-2.7,4.555-5.189,8.73-7.142,12a1.773,1.773,0,0,1-2.01.808c-1.185-.327-2.778-.529-7.051-.529s-7.376,2.711-8.489,7.438a1.786,1.786,0,0,1-1.741,1.378Zm21.433-19.678c-12.862,2.261-21.85,7.376-21.85,12.684a4.372,4.372,0,0,0,.1.94A11.506,11.506,0,0,1,362.611,46.5a41.324,41.324,0,0,1,6.651.36C370.6,44.622,372.145,42.025,373.814,39.218Z" transform="translate(-348.387 -35.1)" fill="#fff"/>
      </g>
      <g id="Groupe_82" data-name="Groupe 82" transform="translate(56.884)">
        <path id="Tracé_429" data-name="Tracé 429" d="M368.865,18.808l-10.972,51.1,31.3-10.13s2.959-19.182-2.621-26.2S377.607,21.228,368.865,18.808Z" transform="translate(-356.103 -17.022)" fill="#acb909"/>
        <path id="Tracé_430" data-name="Tracé 430" d="M358.932,72.729a1.788,1.788,0,0,1-1.75-2.163l10.974-51.1a1.785,1.785,0,0,1,2.225-1.347c8.413,2.33,12.193,7.161,16.976,13.275l1.65,2.1c6,7.545,3.117,26.774,2.99,27.59a1.786,1.786,0,0,1-1.219,1.428l-31.3,10.127A1.733,1.733,0,0,1,358.932,72.729Zm12.309-50.585-9.913,46.14,27.287-8.828c.756-5.835,1.5-18.819-2.409-23.732l-1.667-2.12C380.387,28.294,377.284,24.328,371.242,22.144Z" transform="translate(-357.142 -18.059)" fill="#fff"/>
      </g>
      <g id="Groupe_83" data-name="Groupe 83" transform="translate(55.967 4.357)">
        <path id="Tracé_431" data-name="Tracé 431" d="M357.507,68.914a24.663,24.663,0,0,1,2.907,1.1c2.683,1.116,27.406,5.706,36.015-11.391a24.986,24.986,0,0,0,1.834-4.826c6.066-22.752-11.16-32.433-12.615-33.16-1.97,4.071-12.5,21.958-21,36.282C361.95,61.467,359.46,65.642,357.507,68.914Z" transform="translate(-355.721 -18.849)" fill="#c2d500"/>
        <path id="Tracé_432" data-name="Tracé 432" d="M372.458,74.255A38.772,38.772,0,0,1,360.764,72.7l-.484-.2a18.9,18.9,0,0,0-2.208-.823,1.791,1.791,0,0,1-1.064-2.64c1.953-3.272,4.443-7.447,7.142-11.995,12.15-20.47,19.385-32.97,20.925-36.146a1.786,1.786,0,0,1,2.408-.82c.2.1,20.164,10.39,13.545,35.218a26.353,26.353,0,0,1-1.967,5.172C393.412,71.684,381.551,74.255,372.458,74.255ZM361.193,69c.155.067.308.131.467.2l.477.2c2.4.992,25.73,5.349,33.728-10.54a22.968,22.968,0,0,0,1.707-4.485c4.826-18.111-6.05-27.4-10.182-30.182-3.291,6.124-12.55,21.85-20.167,34.675C365.013,62.594,362.944,66.069,361.193,69Z" transform="translate(-356.758 -19.886)" fill="#fff"/>
      </g>
    </g>
  </g>
</svg>
