<svg xmlns="http://www.w3.org/2000/svg" width="280.94" height="283.788" viewBox="0 0 280.94 283.788">
  <g id="logo_cedarsRoll" transform="translate(-5 -5)">
    <g id="CedarsRollCircle" transform="translate(5 5)">
      <path id="Tracé_339" data-name="Tracé 339" d="M13.824,144.242A131.622,131.622,0,0,1,117.637,16.715,133.5,133.5,0,0,1,145.78,13.7,131.8,131.8,0,0,1,274.288,117.489a130.047,130.047,0,0,1-6.043,75.6v.55l8.056,3.294v-.548A140.391,140.391,0,0,0,145.78,5a142.385,142.385,0,0,0-30.021,3.2,140.314,140.314,0,0,0,28.558,277.471h1.1v-8.7h-1.1A131.62,131.62,0,0,1,13.824,144.242Z" transform="translate(-5 -5)" fill="#e63c2f"/>
      <g id="Groupe_65" data-name="Groupe 65" transform="translate(150.754 194.411)">
        <path id="Tracé_340" data-name="Tracé 340" d="M84.436,121.41a2.764,2.764,0,0,0-2.2-.5l-2.561.6L81,127.315l2.561-.595a2.8,2.8,0,0,0,1.786-1.281,2.892,2.892,0,0,0,.365-2.2A2.848,2.848,0,0,0,84.436,121.41Z" transform="translate(-55.6 -44.028)" fill="none"/>
        <path id="Tracé_341" data-name="Tracé 341" d="M113.829,98.384a2.975,2.975,0,0,0-3.524,4.577l6.134,4.394a2.973,2.973,0,0,0,4.163-.595,2.887,2.887,0,0,0,.55-2.2,2.841,2.841,0,0,0-1.145-1.922Z" transform="translate(-15.388 -74.501)" fill="none"/>
        <path id="Tracé_342" data-name="Tracé 342" d="M84.188,121.609a2.434,2.434,0,0,0,.276-1.831,2.38,2.38,0,0,0-1.1-1.557v.047a2.243,2.243,0,0,0-1.828-.412l-2.564.595,1.145,4.851,2.561-.595A2.288,2.288,0,0,0,84.188,121.609Z" transform="translate(-56.544 -48.116)" fill="none"/>
        <path id="Tracé_343" data-name="Tracé 343" d="M126.552,92.96,118.908,89.3a2.38,2.38,0,0,0-3.156,1.145l-1.145,2.381L126.552,98.5l1.145-2.332A2.43,2.43,0,0,0,126.552,92.96Z" transform="translate(-8.751 -86.649)" fill="none"/>
        <path id="Tracé_344" data-name="Tracé 344" d="M116.737,93.924a2.976,2.976,0,0,0-4.027,1.1l-.014.023a2.931,2.931,0,0,0,1.068,4l6.726,3.889a2.975,2.975,0,0,0,2.976-5.125Z" transform="translate(-11.843 -80.657)" fill="none"/>
        <path id="Tracé_345" data-name="Tracé 345" d="M78.227,133.687l-5.446.412L71.73,119.547a1.148,1.148,0,0,0-.412-.777,1.169,1.169,0,0,0-1.922.96l1.143,15.744a1.145,1.145,0,0,0,1.187,1.1l.049,0-.044-.047,6.679-.5a1.091,1.091,0,0,0,.78-.412,1.159,1.159,0,0,0-.138-1.646A1.1,1.1,0,0,0,78.227,133.687Z" transform="translate(-69.392 -47.198)" fill="#3fd5ae"/>
        <path id="Tracé_346" data-name="Tracé 346" d="M83.008,133.178l-4.9.78-.915-6,4.165-.642a1.15,1.15,0,0,0,.78-.457,1.191,1.191,0,0,0-.229-1.6,1.145,1.145,0,0,0-.871,0l-4.163.639-.817-5.1,4.98-.754a1.15,1.15,0,0,0,.78-.457,1.1,1.1,0,0,0,0-.871,1.189,1.189,0,0,0-1.327-.96l-6.04.915a1.144,1.144,0,0,0-.967,1.3l0,.03,2.334,15.377a1.1,1.1,0,0,0,1.51.777l6.04-.915a1.191,1.191,0,0,0,.962-1.327,1.112,1.112,0,0,0-.459-.733A1.139,1.139,0,0,0,83.008,133.178Z" transform="translate(-63.921 -48.198)" fill="#3fd5ae"/>
        <path id="Tracé_347" data-name="Tracé 347" d="M87.666,124.624a5.082,5.082,0,0,0-5.216-7.688l-3.708.871a.969.969,0,0,0-.73,1.419l3.568,15.33a1.145,1.145,0,0,0,1.32.936.73.73,0,0,0,.1-.021L86.7,134.6a4.9,4.9,0,0,0,3.205-2.381,5.174,5.174,0,0,0,.639-3.982A5.118,5.118,0,0,0,87.666,124.624Zm-6.132,0-1.145-4.851,2.564-.595a2.244,2.244,0,0,1,1.828.412v-.047a2.38,2.38,0,0,1,1.1,1.557,2.434,2.434,0,0,1-.276,1.831,2.288,2.288,0,0,1-1.51,1.1Zm6.178,6.225a2.8,2.8,0,0,1-1.786,1.281l-2.561.595-1.327-5.811,2.561-.6a2.764,2.764,0,0,1,2.2.5,2.848,2.848,0,0,1,1.281,1.831A2.892,2.892,0,0,1,87.713,130.849Z" transform="translate(-57.962 -49.438)" fill="#3fd5ae"/>
        <path id="Tracé_348" data-name="Tracé 348" d="M95.892,113.114a1.114,1.114,0,0,0-.915,0,1.144,1.144,0,0,0-.569,1.515l.019.042L99,124.741l-9.931-8.33a1.144,1.144,0,0,0-1.6,1.51l6.544,14.6a1.1,1.1,0,0,0,.641.595,1.144,1.144,0,0,0,1.489-.632l.021-.056a1.139,1.139,0,0,0,0-.869l-4.577-10.067,10.023,8.192a1.221,1.221,0,0,0,.686,0,1.154,1.154,0,0,0,.78-.412,1.106,1.106,0,0,0,0-1.007l-6.546-14.553A1.053,1.053,0,0,0,95.892,113.114Z" transform="translate(-45.318 -54.541)" fill="#3fd5ae"/>
        <path id="Tracé_349" data-name="Tracé 349" d="M106.847,124.691a1.1,1.1,0,0,0-.869,0l-4.348,2.472-3.02-5.263,3.659-2.107a1.136,1.136,0,0,0,.55-.73,1.1,1.1,0,0,0,0-.871,1.145,1.145,0,0,0-.686-.548,1.19,1.19,0,0,0-.871,0l-3.659,2.1-2.381-4.209,4.348-2.472a1.158,1.158,0,1,0-1.145-2.013l-5.766,3.02a.954.954,0,0,0-.227,1.6l7.688,13.729a1.142,1.142,0,0,0,1.54.492l.061-.033,5.354-3.02a1.19,1.19,0,0,0,.457-1.6A1.092,1.092,0,0,0,106.847,124.691Z" transform="translate(-38.93 -57.376)" fill="#3fd5ae"/>
        <path id="Tracé_350" data-name="Tracé 350" d="M107.31,115.063a5.039,5.039,0,0,0-4.577.733,2.332,2.332,0,0,1-1.784.412,2.24,2.24,0,0,1-1.557-.96v-.321a2.383,2.383,0,0,1-.412-1.831,2.287,2.287,0,0,1,1.007-1.557,2.254,2.254,0,0,1,1.419-.412,2.4,2.4,0,0,1,1.372.459,1.054,1.054,0,0,0,1.327,0,1.188,1.188,0,0,0,.26-1.662,1.141,1.141,0,0,0-.26-.26,4.742,4.742,0,0,0-6.726,6.544v.274a4.58,4.58,0,0,0,3.111,1.969,4.855,4.855,0,0,0,3.615-.777,2.793,2.793,0,0,1,2.519-.321,2.92,2.92,0,0,1,1.92,1.875,2.867,2.867,0,0,1,0,1.878,2.98,2.98,0,0,1-1.234,1.6,2.839,2.839,0,0,1-1.786.5,2.893,2.893,0,0,1-1.737-.686,1.051,1.051,0,0,0-1.419,0,1.1,1.1,0,0,0-.506.915,1.144,1.144,0,0,0,.459.96,5.27,5.27,0,0,0,3.111,1.145,5.314,5.314,0,0,0,5.354-3.8,5.061,5.061,0,0,0,0-3.568A5.218,5.218,0,0,0,107.31,115.063Z" transform="translate(-33.076 -60.334)" fill="#3fd5ae"/>
        <path id="Tracé_351" data-name="Tracé 351" d="M115.868,117.347a1.091,1.091,0,0,0-.822.274l-3.8,3.2-3.936-4.575,3.25-2.746a1.189,1.189,0,0,0,0-1.648,1.144,1.144,0,0,0-.777-.412,1.2,1.2,0,0,0-.871.274l-3.25,2.746-3.111-3.706,3.8-3.2a1.262,1.262,0,0,0,.274-1.831,1.189,1.189,0,0,0-1.648,0l-4.577,3.936a1.148,1.148,0,0,0-.412.777,1.2,1.2,0,0,0,.276.871l10.023,11.9a1.156,1.156,0,0,0,1.646.136l4.577-3.936a1.142,1.142,0,0,0-.641-2.058Z" transform="translate(-28.364 -64.768)" fill="#3fd5ae"/>
        <path id="Tracé_352" data-name="Tracé 352" d="M113.25,110.584l2.838-3.158a1.145,1.145,0,0,0,.03-1.618l-.03-.028a1.137,1.137,0,0,0-.824-.321,1.187,1.187,0,0,0-.824.412l-2.838,3.156-3.568-3.2,3.341-3.706a1.1,1.1,0,0,0,.318-.686,1.144,1.144,0,0,0-2.013-.733l-4.118,4.577a1.145,1.145,0,0,0-.03,1.618l.03.028,11.58,10.39a1.18,1.18,0,0,0,.869.318,1.194,1.194,0,0,0,.824-.41,1.114,1.114,0,0,0-.091-1.648Z" transform="translate(-21.352 -71.597)" fill="#3fd5ae"/>
        <path id="Tracé_353" data-name="Tracé 353" d="M116.889,97.917a5.077,5.077,0,0,0-3.936-1.007,5.263,5.263,0,0,0-2.381,9.472l6.225,4.577a5.281,5.281,0,1,0,6.314-8.466Zm5.4,10.573a2.973,2.973,0,0,1-4.163.595l-6.134-4.394a2.975,2.975,0,0,1,3.524-4.577l6.178,4.256a2.841,2.841,0,0,1,1.145,1.922A2.887,2.887,0,0,1,122.288,108.49Z" transform="translate(-17.073 -76.23)" fill="#3fd5ae"/>
        <path id="Tracé_354" data-name="Tracé 354" d="M119.3,93.255a5.291,5.291,0,1,0-5.31,9.154l6.729,3.889a5.308,5.308,0,0,0,5.307-9.152Zm6.164,10.048a2.976,2.976,0,0,1-3.694.981L115.04,100.4a2.931,2.931,0,0,1-1.068-4l.014-.023a2.976,2.976,0,0,1,4.027-1.1l6.729,3.891A2.973,2.973,0,0,1,125.461,103.3Z" transform="translate(-13.119 -82.002)" fill="#3fd5ae"/>
        <path id="Tracé_355" data-name="Tracé 355" d="M129.066,92.2l-7.644-3.662a4.576,4.576,0,0,0-6.155,2c-.04.08-.077.162-.115.243l-1.646,3.432a1.193,1.193,0,0,0,0,.915,1.139,1.139,0,0,0,.595.639L128.15,102.5a1.253,1.253,0,0,0,1.693-.55l1.648-3.432a5.06,5.06,0,0,0-2.425-6.314Zm.229,5.354-1.145,2.332-11.945-5.673,1.145-2.381a2.38,2.38,0,0,1,3.156-1.145l7.644,3.662A2.43,2.43,0,0,1,129.3,97.555Z" transform="translate(-10.349 -88.04)" fill="#3fd5ae"/>
        <path id="Tracé_356" data-name="Tracé 356" d="M92.294,118.907a4.648,4.648,0,0,0-.382-.714,4.538,4.538,0,0,0-.3-.567l-.026-.028a4.418,4.418,0,0,0-6.183-1.85h-.152a4.432,4.432,0,0,0-.468.419,4.461,4.461,0,0,0-1.433,5.6c.012.052.009.1.026.155l3.936,11.807a1.14,1.14,0,0,0,.595.688,1.208,1.208,0,0,0,.869,0,1.145,1.145,0,0,0,.74-1.44l-.007-.026-2.334-7.094,4.577-1.51,2.334,7.094a1.13,1.13,0,0,0,.595.686,1.106,1.106,0,0,0,1.555-1.419Zm-4.614-1.121a2.336,2.336,0,0,1,2.224,1.674,2.175,2.175,0,0,1,.288.52l.824,2.517-4.575,1.51-.824-2.517a2.242,2.242,0,0,1,0-.251,2.307,2.307,0,0,1-.3-1.091A2.364,2.364,0,0,1,87.68,117.786Z" transform="translate(-51.287 -51.683)" fill="#3fd5ae"/>
      </g>
    </g>
    <g id="CedarsRollText" transform="translate(40.478 53.178)">
      <path id="Tracé_357" data-name="Tracé 357" d="M66.006,53.81h-.274a9.611,9.611,0,0,0-9.611,9.611v8.054a9.609,9.609,0,0,0,9.611,9.611h.274a9.7,9.7,0,0,0,9.611-9.611V63.421A9.7,9.7,0,0,0,66.006,53.81Z" transform="translate(28.085 12.286)" fill="none"/>
      <path id="Tracé_358" data-name="Tracé 358" d="M93.633,63.485a9.566,9.566,0,0,0-9.519-9.519h-.276a9.473,9.473,0,0,0-9.517,9.428V71.4a9.473,9.473,0,0,0,9.426,9.519h.368a9.567,9.567,0,0,0,9.519-9.472Z" transform="translate(52.493 12.495)" fill="none"/>
      <path id="Tracé_359" data-name="Tracé 359" d="M55.336,56.816a9.161,9.161,0,0,0-6.682-2.791h-.276a9.471,9.471,0,0,0-9.517,9.428v.091H58.127A9.483,9.483,0,0,0,55.336,56.816Z" transform="translate(4.936 12.574)" fill="none"/>
      <path id="Tracé_360" data-name="Tracé 360" d="M66.649,82.838h-.274A9.473,9.473,0,0,0,56.9,92.31v7.965a9.471,9.471,0,0,0,9.428,9.517l.044,0h.274a9.563,9.563,0,0,0,9.519-9.519V92.31A9.564,9.564,0,0,0,66.649,82.838Z" transform="translate(29.133 51.218)" fill="none"/>
      <path id="Tracé_361" data-name="Tracé 361" d="M70.606,66.88h-.274A17.525,17.525,0,0,0,52.85,84.361l-.091,8.145A17.529,17.529,0,0,0,70.241,109.99h.274a17.078,17.078,0,0,0,9.793-2.976,3.527,3.527,0,0,0,3.8,2.976,3.756,3.756,0,0,0,2.791-1.145,3.841,3.841,0,0,0,1.189-2.838V48.3l14.188,5.127a4.165,4.165,0,0,0,2.838-7.827l-19.586-7.23a4.174,4.174,0,0,0-2.793,0L62.826,45.416a4.176,4.176,0,1,0,2.793,7.871l14.6-5.172V69.762A17.192,17.192,0,0,0,70.606,66.88Zm9.519,25.627a9.7,9.7,0,0,1-9.611,9.611h-.274a9.609,9.609,0,0,1-9.611-9.611V84.453a9.611,9.611,0,0,1,9.611-9.611h.274a9.7,9.7,0,0,1,9.611,9.611Z" transform="translate(23.575 -8.746)" fill="#3fd5ae"/>
      <path id="Tracé_362" data-name="Tracé 362" d="M58.926,42.086a4.167,4.167,0,0,0,3.947,2.8l-.047-.047a4.158,4.158,0,0,0,1.374-.227L76.145,40.4l11.668,4.212a4.165,4.165,0,0,0,2.838-7.827L77.608,32.211a4.167,4.167,0,0,0-2.791,0L61.5,36.788A4.165,4.165,0,0,0,58.926,42.086Z" transform="translate(31.538 -17.005)" fill="#3fd5ae"/>
      <path id="Tracé_363" data-name="Tracé 363" d="M66.8,36.207l5.9-2.058,5.72,2.058a4.164,4.164,0,0,0,2.838-7.824l-7.138-2.564a4.174,4.174,0,0,0-2.793,0l-7.276,2.564a4.162,4.162,0,0,0-2.564,5.3l0,.007A4.161,4.161,0,0,0,66.8,36.207Z" transform="translate(34.976 -25.578)" fill="#3fd5ae"/>
      <path id="Tracé_364" data-name="Tracé 364" d="M27.934,66.326A7.917,7.917,0,0,1,35.9,58.455h.229a7.785,7.785,0,0,1,4.575,1.51,7.591,7.591,0,0,1,2.884,3.891,3.524,3.524,0,0,0,3.662,2.517A3.794,3.794,0,0,0,50.4,64.816a3.613,3.613,0,0,0,.55-3.432A15.651,15.651,0,0,0,36.126,50.722H35.9a15.74,15.74,0,0,0-15.742,15.7V77.311a15.741,15.741,0,0,0,15.789,15.7h.227A15.79,15.79,0,0,0,51,82.344a3.57,3.57,0,0,0-.55-3.432,3.752,3.752,0,0,0-3.158-1.6,3.524,3.524,0,0,0-3.662,2.561,8.006,8.006,0,0,1-7.5,5.4H35.8a7.917,7.917,0,0,1-7.871-7.962V66.326Z" transform="translate(-20.154 8.144)" fill="#181614"/>
      <path id="Tracé_365" data-name="Tracé 365" d="M69.03,71.839a7.453,7.453,0,0,0,1.1-3.889l.365-1.51-.274-1.466a15.5,15.5,0,0,0-1.007-3.523,17.2,17.2,0,0,0-3.706-5.584,16.573,16.573,0,0,0-12.265-5.125h-.274A17.3,17.3,0,0,0,35.713,67.95v7.871A17.3,17.3,0,0,0,52.968,92.938h.274A16.383,16.383,0,0,0,66.97,85.891a3.752,3.752,0,0,0,.595-3.479,3.658,3.658,0,0,0-2.425-2.472,3.478,3.478,0,0,0-4.575,1.327A9.153,9.153,0,0,1,52.876,85.2h-.368a9.473,9.473,0,0,1-9.426-9.519H62.349A7.274,7.274,0,0,0,69.03,71.839ZM43.083,67.9v-.044A9.471,9.471,0,0,1,52.6,58.431h.276a9.161,9.161,0,0,1,6.682,2.791,9.483,9.483,0,0,1,2.791,6.729H43.083Z" transform="translate(0.714 8.168)" fill="#181614"/>
      <path id="Tracé_366" data-name="Tracé 366" d="M102,93.1a3.694,3.694,0,0,0,2.746-1.1,3.8,3.8,0,0,0,1.145-2.791V54.524A3.892,3.892,0,0,0,102,50.68a3.477,3.477,0,0,0-3.889,2.929,16.931,16.931,0,0,0-9.611-2.929h-.276A17.3,17.3,0,0,0,70.977,67.932V75.9A17.3,17.3,0,0,0,88.229,93.149h.276a16.855,16.855,0,0,0,9.611-2.929A3.476,3.476,0,0,0,102,93.1ZM88.6,85.369h-.368A9.473,9.473,0,0,1,78.8,75.85V67.841a9.473,9.473,0,0,1,9.517-9.428H88.6a9.566,9.566,0,0,1,9.519,9.519V75.9A9.567,9.567,0,0,1,88.6,85.369Z" transform="translate(48.009 8.048)" fill="#181614"/>
      <path id="Tracé_367" data-name="Tracé 367" d="M96.281,91.962a3.885,3.885,0,0,0,1.145-2.791V68.028a9.562,9.562,0,0,1,9.472-9.472,3.763,3.763,0,0,0,2.746-1.145,3.889,3.889,0,0,0-2.746-6.635A16.6,16.6,0,0,0,97.334,53.7a3.982,3.982,0,0,0-1.374-2.152,3.619,3.619,0,0,0-2.425-.871,3.812,3.812,0,0,0-2.791,1.145,3.712,3.712,0,0,0-1.1,2.746v34.6c0,.061,0,.124,0,.185a3.92,3.92,0,0,0,6.635,2.606Z" transform="translate(73.046 8.09)" fill="#181614"/>
      <path id="Tracé_368" data-name="Tracé 368" d="M113.53,85.441a5.631,5.631,0,0,1-5.4-3.067A4.21,4.21,0,0,0,104.149,80a4.163,4.163,0,0,0-3.617,1.784,3.388,3.388,0,0,0-.274,3.753,13.743,13.743,0,0,0,5.263,5.219,15.487,15.487,0,0,0,7.962,2.1,15.693,15.693,0,0,0,9.154-2.746,12.36,12.36,0,0,0,5.446-6.956,11.852,11.852,0,0,0-2.929-11.35,14.558,14.558,0,0,0-11.441-5.172,4.573,4.573,0,0,1-3.891-1.189,3.713,3.713,0,0,1-1.007-3.57,4,4,0,0,1,1.7-2.425,5.261,5.261,0,0,1,3.02-.915,4.584,4.584,0,0,1,4.074,2.1,4.3,4.3,0,0,0,3.8,2.107,4.12,4.12,0,0,0,3.706-1.924,3.333,3.333,0,0,0,0-3.842,12.724,12.724,0,0,0-11.624-6.225,14.409,14.409,0,0,0-8.1,2.381,11.518,11.518,0,0,0-4.575,6.27A10.752,10.752,0,0,0,103,70.019a13.177,13.177,0,0,0,10.343,4.575,6.959,6.959,0,0,1,4.118,1.327,5.085,5.085,0,0,1,2.1,3.388,4.988,4.988,0,0,1-1.463,4.3A6.134,6.134,0,0,1,113.53,85.441Z" transform="translate(86.689 8.16)" fill="#181614"/>
      <path id="Tracé_369" data-name="Tracé 369" d="M47.306,121.861a3.794,3.794,0,0,0,2.744-1.1,3.886,3.886,0,0,0,1.1-2.791V96.827a9.563,9.563,0,0,1,9.517-9.519,3.752,3.752,0,0,0,2.746-1.1,3.889,3.889,0,0,0-2.746-6.635l.047.091a16.6,16.6,0,0,0-9.564,2.929,3.942,3.942,0,0,0-1.374-2.152,3.609,3.609,0,0,0-2.425-.869,3.8,3.8,0,0,0-2.791,1.143,3.705,3.705,0,0,0-1.145,2.746v34.6A3.848,3.848,0,0,0,47.306,121.861Z" transform="translate(11.043 46.84)" fill="#181614"/>
      <path id="Tracé_370" data-name="Tracé 370" d="M71.106,79.515h-.274A17.3,17.3,0,0,0,53.58,96.767v7.965a17.3,17.3,0,0,0,17.252,17.252h.321a17.254,17.254,0,0,0,17.208-17.3V96.767A17.3,17.3,0,0,0,71.106,79.515Zm9.519,25.217a9.563,9.563,0,0,1-9.519,9.519h-.274l-.044,0a9.471,9.471,0,0,1-9.428-9.517V96.767a9.473,9.473,0,0,1,9.472-9.472h.274a9.564,9.564,0,0,1,9.519,9.472Z" transform="translate(24.677 46.761)" fill="#181614"/>
      <path id="Tracé_371" data-name="Tracé 371" d="M75.188,72.658a3.89,3.89,0,0,0-3.9,3.879v37.344a17.3,17.3,0,0,0,17.252,17.255,3.7,3.7,0,0,0,2.746-1.1,3.8,3.8,0,0,0,1.145-2.791,3.892,3.892,0,0,0-3.891-3.844l-.185,0a9.474,9.474,0,0,1-9.47-9.475V76.537a3.848,3.848,0,0,0-1.145-2.746h.183A3.888,3.888,0,0,0,75.188,72.658Z" transform="translate(48.429 37.565)" fill="#181614"/>
      <path id="Tracé_372" data-name="Tracé 372" d="M98.765,131.161a3.708,3.708,0,0,0,2.746-1.1,3.8,3.8,0,0,0,1.145-2.793,3.888,3.888,0,0,0-3.891-3.842h-.091a9.474,9.474,0,0,1-9.426-9.519V76.517A3.848,3.848,0,0,0,88.1,73.771a3.807,3.807,0,0,0-2.7-1.1h-.047a3.845,3.845,0,0,0-3.844,3.844v37.391A17.253,17.253,0,0,0,98.765,131.161Z" transform="translate(62.14 37.585)" fill="#181614"/>
    </g>
  </g>
</svg>
