<svg xmlns="http://www.w3.org/2000/svg" width="150" height="78.202" viewBox="0 0 150 78.202">
  <g id="logo_white" transform="translate(-259.637 -213.541)">
    <g id="Groupe_85" data-name="Groupe 85" transform="translate(259.637 238.159)">
      <path id="Tracé_433" data-name="Tracé 433" d="M259.637,266.488H284.27v5.988H266.255v9.139h17.07V287.6h-17.07v10.084h18.961v5.988H259.637Z" transform="translate(-259.637 -266.488)" fill="#fff"/>
      <path id="Tracé_434" data-name="Tracé 434" d="M335.91,266.488h5.725l16.019,37.186h-7.563l-3.467-8.509H330.5l-3.361,8.509h-7.406Zm8.4,23-5.725-15.127-5.83,15.127Z" transform="translate(-291.791 -266.488)" fill="#fff"/>
      <path id="Tracé_435" data-name="Tracé 435" d="M403.088,272.476h-11.4v-5.988H421.1v5.988h-11.4v31.2h-6.619Z" transform="translate(-330.293 -266.488)" fill="#fff"/>
    </g>
    <g id="Groupe_86" data-name="Groupe 86" transform="translate(371.401 238.159)">
      <path id="Tracé_436" data-name="Tracé 436" d="M503.8,303.674h-3.782V266.488H503.8Z" transform="translate(-500.015 -266.488)" fill="#fff"/>
      <path id="Tracé_437" data-name="Tracé 437" d="M536.8,303.674h-3.781v-33.72H520.574v-3.466h28.678v3.466H536.8Z" transform="translate(-511.015 -266.488)" fill="#fff"/>
    </g>
    <rect id="Rectangle_35" data-name="Rectangle 35" width="2.79" height="28.18" transform="translate(359.471 213.541)" fill="#fff"/>
    <g id="Groupe_87" data-name="Groupe 87" transform="translate(260.611 280.22)">
      <path id="Tracé_438" data-name="Tracé 438" d="M261.732,361.574h2.005a9.45,9.45,0,0,1,1.125.067,3.04,3.04,0,0,1,1,.288,1.819,1.819,0,0,1,.72.649,2.105,2.105,0,0,1,.277,1.158,1.91,1.91,0,0,1-.521,1.4,2.489,2.489,0,0,1-1.44.676l2.227,3.612h-1.141L263.86,365.9h-1.2v3.523h-.931Zm.931,3.457h.831q.388,0,.8-.022a2.752,2.752,0,0,0,.764-.144,1.33,1.33,0,0,0,.576-.383,1.1,1.1,0,0,0,.227-.748,1.223,1.223,0,0,0-.166-.676,1.126,1.126,0,0,0-.437-.393,1.887,1.887,0,0,0-.609-.183,5.369,5.369,0,0,0-.682-.044h-1.307Z" transform="translate(-261.732 -359.425)" fill="#fff"/>
      <path id="Tracé_439" data-name="Tracé 439" d="M276.292,359.1h4.93v.865h-4v2.46h3.734v.864h-3.734v2.793h4.2v.864h-5.13Zm2.7-2.149h1.219l-1.585,1.6h-.787Z" transform="translate(-269.522 -356.952)" fill="#fff"/>
      <path id="Tracé_440" data-name="Tracé 440" d="M296.57,368.658a5.532,5.532,0,0,1-1.424.554,6.543,6.543,0,0,1-1.512.177,4.582,4.582,0,0,1-1.684-.3,3.938,3.938,0,0,1-1.324-.842,3.787,3.787,0,0,1-.87-1.3,4.4,4.4,0,0,1-.31-1.678,4.228,4.228,0,0,1,.327-1.69,3.819,3.819,0,0,1,.9-1.3,4.182,4.182,0,0,1,1.341-.836,4.5,4.5,0,0,1,1.651-.3,4.777,4.777,0,0,1,1.49.233,3.189,3.189,0,0,1,1.28.8l-.7.731a2.676,2.676,0,0,0-.969-.665,3.066,3.066,0,0,0-1.169-.232,3.194,3.194,0,0,0-1.252.243,3.035,3.035,0,0,0-1.667,1.706,3.5,3.5,0,0,0-.238,1.308,3.469,3.469,0,0,0,.238,1.3,3.121,3.121,0,0,0,.665,1.036,2.985,2.985,0,0,0,1.025.681,3.459,3.459,0,0,0,1.319.244,4.6,4.6,0,0,0,1-.116,3.967,3.967,0,0,0,.953-.338v-2.4h-1.806V364.8h2.737Z" transform="translate(-276.56 -359.196)" fill="#fff"/>
      <path id="Tracé_441" data-name="Tracé 441" d="M310.466,361.574h.875l3.335,7.845H313.59l-.8-1.928H308.87l-.809,1.928h-1.052Zm.421,1.2h-.022l-1.629,3.856h3.2Z" transform="translate(-285.957 -359.425)" fill="#fff"/>
      <path id="Tracé_442" data-name="Tracé 442" d="M325.739,361.574h.93v6.981h3.59v.864h-4.52Z" transform="translate(-295.979 -359.425)" fill="#fff"/>
      <path id="Tracé_443" data-name="Tracé 443" d="M337.654,361.574h4.93v.865h-4v2.46h3.734v.864h-3.734v2.792h4.2v.864h-5.13Z" transform="translate(-302.354 -359.425)" fill="#fff"/>
      <path id="Tracé_444" data-name="Tracé 444" d="M350.378,368.588l4.532-6.149h-4.465v-.865h5.6v.8l-4.532,6.183H356.1v.864h-5.717Z" transform="translate(-309.162 -359.425)" fill="#fff"/>
      <path id="Tracé_445" data-name="Tracé 445" d="M369.776,361.574h1.053l2.415,6.449h.022l2.493-6.449h.986l-3.069,7.845h-.9Z" transform="translate(-319.541 -359.425)" fill="#fff"/>
      <path id="Tracé_446" data-name="Tracé 446" d="M389.769,369.389a4.25,4.25,0,0,1-1.645-.31,3.944,3.944,0,0,1-1.3-.858,3.848,3.848,0,0,1-.853-1.308,4.59,4.59,0,0,1,0-3.29,3.847,3.847,0,0,1,.853-1.307,3.938,3.938,0,0,1,1.3-.858,4.513,4.513,0,0,1,3.29,0,3.937,3.937,0,0,1,1.3.858,3.853,3.853,0,0,1,.853,1.307,4.59,4.59,0,0,1,0,3.29,3.855,3.855,0,0,1-.853,1.308,3.943,3.943,0,0,1-1.3.858A4.251,4.251,0,0,1,389.769,369.389Zm0-.864a3.052,3.052,0,0,0,1.258-.255,2.965,2.965,0,0,0,.981-.7,3.186,3.186,0,0,0,.637-1.036,3.653,3.653,0,0,0,0-2.537,3.2,3.2,0,0,0-.637-1.036,2.97,2.97,0,0,0-.981-.7,3.23,3.23,0,0,0-2.515,0,2.96,2.96,0,0,0-.981.7,3.188,3.188,0,0,0-.637,1.036,3.653,3.653,0,0,0,0,2.537,3.178,3.178,0,0,0,.637,1.036,2.955,2.955,0,0,0,.981.7A3.051,3.051,0,0,0,389.769,368.525Z" transform="translate(-328.045 -359.196)" fill="#fff"/>
      <path id="Tracé_447" data-name="Tracé 447" d="M412.367,366.427a4.524,4.524,0,0,1-.161,1.219,2.818,2.818,0,0,1-.51,1.014,2.463,2.463,0,0,1-.914.7,3.762,3.762,0,0,1-2.748,0,2.463,2.463,0,0,1-.914-.7,2.819,2.819,0,0,1-.51-1.014,4.506,4.506,0,0,1-.161-1.219v-4.853h.931v4.721a4.144,4.144,0,0,0,.1.919,2.288,2.288,0,0,0,.332.787,1.684,1.684,0,0,0,.621.548,2.415,2.415,0,0,0,1.95,0A1.684,1.684,0,0,0,411,368a2.288,2.288,0,0,0,.332-.787,4.146,4.146,0,0,0,.1-.919v-4.721h.931Z" transform="translate(-339.163 -359.425)" fill="#fff"/>
      <path id="Tracé_448" data-name="Tracé 448" d="M426.383,362.731a1.375,1.375,0,0,0-.62-.549,1.983,1.983,0,0,0-.81-.172,2.444,2.444,0,0,0-.609.077,1.792,1.792,0,0,0-.537.233,1.171,1.171,0,0,0-.383.41,1.192,1.192,0,0,0-.143.6,1.236,1.236,0,0,0,.083.471.992.992,0,0,0,.272.372,2.012,2.012,0,0,0,.509.31,7.047,7.047,0,0,0,.788.288q.453.144.881.31a2.965,2.965,0,0,1,.753.421,1.875,1.875,0,0,1,.521.637,2.408,2.408,0,0,1-.039,1.978,2.142,2.142,0,0,1-.615.715,2.669,2.669,0,0,1-.881.421,3.826,3.826,0,0,1-1.031.139,3.941,3.941,0,0,1-.687-.061,3.313,3.313,0,0,1-.659-.188,2.665,2.665,0,0,1-.593-.332,2.013,2.013,0,0,1-.477-.5l.8-.654a1.635,1.635,0,0,0,.71.654,2.162,2.162,0,0,0,1.567.133,1.819,1.819,0,0,0,.548-.26,1.42,1.42,0,0,0,.4-.426,1.105,1.105,0,0,0,.155-.588,1.256,1.256,0,0,0-.122-.592,1.1,1.1,0,0,0-.377-.393,2.933,2.933,0,0,0-.643-.3l-.908-.31a5.742,5.742,0,0,1-.776-.3,2.371,2.371,0,0,1-.615-.421,1.8,1.8,0,0,1-.41-.6,2.132,2.132,0,0,1-.149-.837,2.022,2.022,0,0,1,.819-1.69,2.731,2.731,0,0,1,.854-.427,3.619,3.619,0,0,1,2.21.061,2.376,2.376,0,0,1,.981.715Z" transform="translate(-347.54 -359.196)" fill="#fff"/>
      <path id="Tracé_449" data-name="Tracé 449" d="M436.542,378.675h-.853l.754-2.659h1.008Z" transform="translate(-354.808 -367.152)" fill="#fff"/>
      <path id="Tracé_450" data-name="Tracé 450" d="M454.769,362.963a2.247,2.247,0,0,0-.876-.715,2.585,2.585,0,0,0-1.086-.238,2.718,2.718,0,0,0-1.2.266,3.019,3.019,0,0,0-.948.715,3.286,3.286,0,0,0-.621,1.042,3.492,3.492,0,0,0-.221,1.235,3.621,3.621,0,0,0,.221,1.28,3.206,3.206,0,0,0,.615,1.031,2.884,2.884,0,0,0,.942.692,3.039,3.039,0,0,0,2.5-.028,2.906,2.906,0,0,0,.986-.815l.7.587a3.223,3.223,0,0,1-1.28,1.041,4.115,4.115,0,0,1-1.69.332,3.985,3.985,0,0,1-1.573-.31,3.874,3.874,0,0,1-1.269-.858,3.957,3.957,0,0,1-.842-1.3,4.355,4.355,0,0,1-.3-1.651,4.409,4.409,0,0,1,.294-1.618,3.895,3.895,0,0,1,3.695-2.5,4.176,4.176,0,0,1,1.534.288,2.823,2.823,0,0,1,1.235.941Z" transform="translate(-361.833 -359.196)" fill="#fff"/>
      <path id="Tracé_451" data-name="Tracé 451" d="M466.572,361.574h.931V364.9h4.188v-3.324h.931v7.845h-.931v-3.656H467.5v3.656h-.931Z" transform="translate(-371.332 -359.425)" fill="#fff"/>
      <path id="Tracé_452" data-name="Tracé 452" d="M483.777,361.574h4.931v.865h-4v2.46h3.734v.864h-3.734v2.792h4.2v.864h-5.13Z" transform="translate(-380.537 -359.425)" fill="#fff"/>
      <path id="Tracé_453" data-name="Tracé 453" d="M496.5,368.588l4.531-6.149h-4.465v-.865h5.6v.8l-4.531,6.183h4.587v.864H496.5Z" transform="translate(-387.346 -359.425)" fill="#fff"/>
      <path id="Tracé_454" data-name="Tracé 454" d="M515.9,361.574h1.053l2.415,6.449h.022l2.493-6.449h.986l-3.069,7.845h-.9Z" transform="translate(-397.724 -359.425)" fill="#fff"/>
      <path id="Tracé_455" data-name="Tracé 455" d="M535.893,369.389a4.252,4.252,0,0,1-1.645-.31,3.949,3.949,0,0,1-1.3-.858,3.863,3.863,0,0,1-.853-1.308,4.6,4.6,0,0,1,0-3.29,3.861,3.861,0,0,1,.853-1.307,3.943,3.943,0,0,1,1.3-.858,4.513,4.513,0,0,1,3.29,0,3.945,3.945,0,0,1,1.3.858,3.846,3.846,0,0,1,.853,1.307,4.59,4.59,0,0,1,0,3.29,3.847,3.847,0,0,1-.853,1.308,3.951,3.951,0,0,1-1.3.858A4.25,4.25,0,0,1,535.893,369.389Zm0-.864a3.05,3.05,0,0,0,1.257-.255,2.962,2.962,0,0,0,.981-.7,3.193,3.193,0,0,0,.637-1.036,3.659,3.659,0,0,0,0-2.537,3.2,3.2,0,0,0-.637-1.036,2.968,2.968,0,0,0-.981-.7,3.23,3.23,0,0,0-2.515,0,2.971,2.971,0,0,0-.981.7,3.2,3.2,0,0,0-.637,1.036,3.652,3.652,0,0,0,0,2.537,3.186,3.186,0,0,0,.637,1.036,2.965,2.965,0,0,0,.981.7A3.054,3.054,0,0,0,535.893,368.525Z" transform="translate(-406.229 -359.196)" fill="#fff"/>
      <path id="Tracé_456" data-name="Tracé 456" d="M558.491,366.427a4.506,4.506,0,0,1-.161,1.219,2.812,2.812,0,0,1-.51,1.014,2.458,2.458,0,0,1-.914.7,3.762,3.762,0,0,1-2.748,0,2.464,2.464,0,0,1-.914-.7,2.819,2.819,0,0,1-.51-1.014,4.506,4.506,0,0,1-.161-1.219v-4.853h.931v4.721a4.144,4.144,0,0,0,.1.919,2.281,2.281,0,0,0,.332.787,1.675,1.675,0,0,0,.62.548,2.415,2.415,0,0,0,1.95,0,1.679,1.679,0,0,0,.62-.548,2.279,2.279,0,0,0,.333-.787,4.148,4.148,0,0,0,.1-.919v-4.721h.931Z" transform="translate(-417.347 -359.425)" fill="#fff"/>
      <path id="Tracé_457" data-name="Tracé 457" d="M572.506,362.731a1.37,1.37,0,0,0-.62-.549,1.98,1.98,0,0,0-.809-.172,2.448,2.448,0,0,0-.609.077,1.8,1.8,0,0,0-.537.233,1.166,1.166,0,0,0-.383.41,1.192,1.192,0,0,0-.144.6,1.235,1.235,0,0,0,.083.471.987.987,0,0,0,.271.372,2.013,2.013,0,0,0,.509.31,7.036,7.036,0,0,0,.787.288q.454.144.881.31a2.96,2.96,0,0,1,.753.421,1.867,1.867,0,0,1,.521.637,2.4,2.4,0,0,1-.039,1.978,2.132,2.132,0,0,1-.615.715,2.665,2.665,0,0,1-.881.421,3.823,3.823,0,0,1-1.03.139,3.941,3.941,0,0,1-.687-.061,3.311,3.311,0,0,1-.659-.188,2.662,2.662,0,0,1-.592-.332,2.006,2.006,0,0,1-.477-.5l.8-.654a1.637,1.637,0,0,0,.71.654,2.163,2.163,0,0,0,1.568.133,1.824,1.824,0,0,0,.548-.26,1.425,1.425,0,0,0,.4-.426,1.1,1.1,0,0,0,.155-.588,1.25,1.25,0,0,0-.122-.592,1.09,1.09,0,0,0-.376-.393,2.94,2.94,0,0,0-.643-.3l-.908-.31a5.787,5.787,0,0,1-.776-.3,2.388,2.388,0,0,1-.615-.421,1.794,1.794,0,0,1-.41-.6,2.123,2.123,0,0,1-.15-.837,2.021,2.021,0,0,1,.82-1.69,2.727,2.727,0,0,1,.853-.427,3.62,3.62,0,0,1,2.211.061,2.377,2.377,0,0,1,.98.715Z" transform="translate(-425.723 -359.196)" fill="#fff"/>
    </g>
  </g>
</svg>
