<svg xmlns="http://www.w3.org/2000/svg" width="50" height="50" viewBox="0 0 50 50">
  <g id="Logo_resto1" transform="translate(-0.207)">
    <rect id="Basilic_CoBG" data-name="Basilic&amp;CoBG" width="50" height="50" transform="translate(0.207)" fill="#3d3c3f"/>
    <g id="Basilic_CoText" data-name="Basilic&amp;CoText" transform="translate(13.702 21.02)">
      <g id="Groupe_30" data-name="Groupe 30">
        <path id="Tracé_219" data-name="Tracé 219" d="M35.569,58.939V54.587h1.182a1.185,1.185,0,0,1,1.306,1.182.989.989,0,0,1-.388.847,1.143,1.143,0,0,1,.647,1.059,1.258,1.258,0,0,1-1.376,1.265ZM36.728,56.4c.429,0,.694-.206.694-.612s-.265-.617-.729-.617H36.2V56.4Zm.159,1.958a.694.694,0,1,0,.018-1.376h-.7v1.376Z" transform="translate(-35.569 -54.505)" fill="#fff"/>
        <path id="Tracé_220" data-name="Tracé 220" d="M46.345,58.939l-.482-1.282H44.3l-.482,1.282h-.67L44.8,54.587h.571l1.653,4.352ZM45.093,55.41h-.012l-.559,1.664h1.123Z" transform="translate(-40.217 -54.505)" fill="#fff"/>
        <path id="Tracé_221" data-name="Tracé 221" d="M55.462,55.586a.582.582,0,0,0-.612-.629.606.606,0,0,0-.582.594c0,.306.206.482.629.617.941.3,1.288.653,1.288,1.406a1.271,1.271,0,0,1-1.335,1.317,1.305,1.305,0,0,1-1.341-1.37h.635a.713.713,0,0,0,.706.788.683.683,0,0,0,.7-.735c0-.318-.141-.518-.606-.677-1.076-.365-1.311-.717-1.311-1.335a1.2,1.2,0,0,1,1.217-1.188A1.166,1.166,0,0,1,56.1,55.586Z" transform="translate(-46.574 -54.374)" fill="#fff"/>
        <path id="Tracé_222" data-name="Tracé 222" d="M62.176,58.939V54.587h.635v4.352Z" transform="translate(-51.89 -54.505)" fill="#fff"/>
        <path id="Tracé_223" data-name="Tracé 223" d="M66.151,58.939V54.587h.635v3.77H68.3v.582Z" transform="translate(-54.329 -54.505)" fill="#fff"/>
        <path id="Tracé_224" data-name="Tracé 224" d="M72.816,58.939V54.587h.635v4.352Z" transform="translate(-58.417 -54.505)" fill="#fff"/>
        <path id="Tracé_225" data-name="Tracé 225" d="M80.381,57.732a2.224,2.224,0,0,1-2.011,1.159,2.279,2.279,0,0,1-2.2-2.241,2.252,2.252,0,0,1,4.24-1.082h-.765a1.551,1.551,0,0,0-1.223-.612,1.639,1.639,0,0,0-1.617,1.635,1.664,1.664,0,0,0,1.582,1.718,1.559,1.559,0,0,0,1.212-.576Z" transform="translate(-60.475 -54.374)" fill="#fff"/>
        <path id="Tracé_226" data-name="Tracé 226" d="M90.7,58.126a1.474,1.474,0,0,1-1.264.765,1.3,1.3,0,0,1-1.329-1.3,1.33,1.33,0,0,1,.835-1.241,1.132,1.132,0,0,1-.418-.865A1.091,1.091,0,1,1,90.7,55.48a1.129,1.129,0,0,1-.729,1.047l.576.564.476-.958h.688L91,57.568l.876.894-.423.429Zm-1.341-1.347a.825.825,0,0,0-.618.806.685.685,0,0,0,.694.724.942.942,0,0,0,.841-.624Zm.711-1.317a.477.477,0,0,0-.453-.506.482.482,0,0,0-.459.529.865.865,0,0,0,.371.618C89.946,55.891,90.069,55.721,90.069,55.462Z" transform="translate(-67.796 -54.374)" fill="#99bf0d"/>
        <path id="Tracé_227" data-name="Tracé 227" d="M102.722,57.732a2.224,2.224,0,0,1-2.011,1.159,2.279,2.279,0,0,1-2.2-2.241,2.252,2.252,0,0,1,4.24-1.082h-.765a1.552,1.552,0,0,0-1.223-.612,1.639,1.639,0,0,0-1.617,1.635,1.664,1.664,0,0,0,1.582,1.718,1.558,1.558,0,0,0,1.212-.576Z" transform="translate(-74.179 -54.374)" fill="#fff"/>
        <path id="Tracé_228" data-name="Tracé 228" d="M112.425,58.891a2.259,2.259,0,1,1,2.3-2.288A2.267,2.267,0,0,1,112.425,58.891Zm1.664-2.247a1.63,1.63,0,1,0-1.629,1.665A1.644,1.644,0,0,0,114.089,56.644Z" transform="translate(-81.347 -54.374)" fill="#fff"/>
      </g>
      <g id="Groupe_31" data-name="Groupe 31" transform="translate(0 5.123)">
        <path id="Tracé_229" data-name="Tracé 229" d="M35.569,70.592V67.625h.862c.637,0,1.042.317,1.042.9s-.4.9-1.038.9H36v1.171Zm.862-1.568c.381,0,.609-.181.609-.5s-.237-.5-.614-.5H36v1Z" transform="translate(-35.569 -67.625)" fill="#99bf0d"/>
        <path id="Tracé_230" data-name="Tracé 230" d="M42.218,68.114v-.489h.417v.489Zm0,2.478V68.371h.417v2.222Z" transform="translate(-39.648 -67.625)" fill="#99bf0d"/>
        <path id="Tracé_231" data-name="Tracé 231" d="M45.043,71.776v-.325l1.067-1.515h-.963v-.381h1.42v.405L45.56,71.395h1.091v.381Z" transform="translate(-41.381 -68.808)" fill="#99bf0d"/>
        <path id="Tracé_232" data-name="Tracé 232" d="M50.546,71.776v-.325l1.067-1.515H50.65v-.381h1.42v.405l-1.006,1.435h1.091v.381Z" transform="translate(-44.756 -68.808)" fill="#99bf0d"/>
        <path id="Tracé_233" data-name="Tracé 233" d="M57.91,71.681v-.345H57.9a.845.845,0,0,1-.754.4,1.169,1.169,0,1,1-.016-2.338.886.886,0,0,1,.77.373h.008v-.313h.417v2.222Zm.008-1.107a.767.767,0,0,0-.774-.794.788.788,0,1,0,.774.794Z" transform="translate(-48.083 -68.713)" fill="#99bf0d"/>
        <path id="Tracé_234" data-name="Tracé 234" d="M70.324,70.592v-.317h-.008a.945.945,0,0,1-.786.373,1.169,1.169,0,0,1-.012-2.338.963.963,0,0,1,.766.333h.008V67.625h.417v2.967Zm-.774-1.9a.788.788,0,1,0,.774.81A.764.764,0,0,0,69.55,68.692Z" transform="translate(-55.693 -67.625)" fill="#99bf0d"/>
        <path id="Tracé_235" data-name="Tracé 235" d="M76.883,70.75a.763.763,0,0,0,.73.605.715.715,0,0,0,.634-.373h.417a1.139,1.139,0,0,1-1.067.754,1.165,1.165,0,0,1-1.131-1.147A1.147,1.147,0,0,1,77.585,69.4a1.131,1.131,0,0,1,1.15,1.143,1.264,1.264,0,0,1-.012.208Zm1.436-.321a.721.721,0,0,0-1.436,0Z" transform="translate(-60.656 -68.713)" fill="#99bf0d"/>
        <path id="Tracé_236" data-name="Tracé 236" d="M88.28,70.592v-1.84h-.3v-.381h.3v-.746H88.7v.746h.365v.381H88.7v1.84Z" transform="translate(-67.718 -67.625)" fill="#99bf0d"/>
        <path id="Tracé_237" data-name="Tracé 237" d="M92.459,70.75a.763.763,0,0,0,.73.605.716.716,0,0,0,.634-.373h.417a1.138,1.138,0,0,1-1.067.754,1.165,1.165,0,0,1-1.131-1.147A1.147,1.147,0,0,1,93.161,69.4a1.132,1.132,0,0,1,1.151,1.143,1.264,1.264,0,0,1-.012.208Zm1.435-.321a.721.721,0,0,0-1.435,0Z" transform="translate(-70.211 -68.713)" fill="#99bf0d"/>
        <path id="Tracé_238" data-name="Tracé 238" d="M99.958,71.681V69.459h.389v.2h.008a.67.67,0,0,1,.566-.261v.429a.53.53,0,0,0-.545.605v1.247Z" transform="translate(-75.067 -68.713)" fill="#99bf0d"/>
        <path id="Tracé_239" data-name="Tracé 239" d="M104.137,71.681V69.459h.389v.2h.008a.668.668,0,0,1,.565-.261v.429a.529.529,0,0,0-.545.605v1.247Z" transform="translate(-77.63 -68.713)" fill="#99bf0d"/>
        <path id="Tracé_240" data-name="Tracé 240" d="M109.055,71.737a1.2,1.2,0,0,1-1.183-1.159,1.2,1.2,0,0,1,2.4.008A1.192,1.192,0,0,1,109.055,71.737Zm.012-1.957a.788.788,0,1,0,.786.782A.781.781,0,0,0,109.067,69.78Z" transform="translate(-79.921 -68.713)" fill="#99bf0d"/>
        <path id="Tracé_241" data-name="Tracé 241" d="M116.112,68.114v-.489h.417v.489Zm0,2.478V68.371h.417v2.222Z" transform="translate(-84.976 -67.625)" fill="#99bf0d"/>
        <path id="Tracé_242" data-name="Tracé 242" d="M119.542,71.681V69.459h.389v.2h.008a.668.668,0,0,1,.565-.261v.429a.529.529,0,0,0-.545.605v1.247Z" transform="translate(-87.08 -68.713)" fill="#99bf0d"/>
      </g>
    </g>
    <g id="Basilic_CoFeuille" data-name="Basilic&amp;CoFeuille" transform="translate(2.672 20.443)">
      <path id="Tracé_243" data-name="Tracé 243" d="M15.61,52.882H7.037v9.364h8.947V52.882Zm0,8.99h0V53.256h0Z" transform="translate(-7.037 -52.882)" fill="#99bf0d"/>
      <g id="Groupe_32" data-name="Groupe 32" transform="translate(1.729 1.048)">
        <path id="Tracé_244" data-name="Tracé 244" d="M18.354,59.039c-.091-.177-.173-.36-.275-.53a5.722,5.722,0,0,0-.99-1.281c-.238-.215-.492-.411-.739-.615a.494.494,0,0,0-.045-.031c.038.135.088.27.112.409a1.951,1.951,0,0,1-.1.953,3.85,3.85,0,0,1-.55,1.066c-.013.018-.024.036-.044.067a1.393,1.393,0,0,0,.815-.2,1.162,1.162,0,0,1-.905.332,7.54,7.54,0,0,0-.7,1.224,1.708,1.708,0,0,0,1.814-.363.676.676,0,0,1-.194.264,1.313,1.313,0,0,1-.629.271,3.494,3.494,0,0,1-1,.02l-.075-.005a5.732,5.732,0,0,0-.436,1.724,2.139,2.139,0,0,0,2.694-.817c-.009.02-.017.041-.028.06a2.083,2.083,0,0,1-1.547,1.092,3,3,0,0,1-1.057-.013l-.077-.011a4.891,4.891,0,0,0,.04.879h-.256a4.2,4.2,0,0,1-.1-1.294,2.492,2.492,0,0,1-1.332-1.452,2.239,2.239,0,0,0,1.345,1.162c.074-.284.134-.559.22-.827s.2-.527.306-.8a1.5,1.5,0,0,1-.488-.83,1.533,1.533,0,0,1-.014-.319,1.3,1.3,0,0,0,.591.973l.741-1.264a2.088,2.088,0,0,1-.111-.185.987.987,0,0,1-.07-.2.772.772,0,0,1-.015-.216.758.758,0,0,0,.276.492c.06-.106.119-.2.171-.3a3.055,3.055,0,0,0,.342-1,1.428,1.428,0,0,0-.156-.937c-.009-.015-.02-.029-.036-.053-.007.024-.012.04-.015.055a1.214,1.214,0,0,1-.317.57c-.271.283-.448.554-.726.831-.482.478-.969.952-1.444,1.437-.235.24-.457.494-.67.754a2.447,2.447,0,0,0-.562,1.276,2.317,2.317,0,0,0,.167,1.146,3.756,3.756,0,0,0,.544.917c.015.019.029.038.05.068a.659.659,0,0,1-.067.009c-.169,0-.444,0-.612,0a.149.149,0,0,1-.1-.049,2.6,2.6,0,0,1-.579-1.375,2.371,2.371,0,0,1,.229-1.223,3.8,3.8,0,0,1,.707-1.026c.375-.4.753-.788,1.142-1.169s.813-.759,1.214-1.144a6.1,6.1,0,0,0,.465-.5,1.161,1.161,0,0,0,.211-1.18c-.031-.092-.063-.182-.1-.273h.027a9.542,9.542,0,0,1,1.2.809,7.914,7.914,0,0,1,1.143,1.087,5.292,5.292,0,0,1,.588.85Z" transform="translate(-11.51 -55.594)" fill="#fff"/>
        <path id="Tracé_245" data-name="Tracé 245" d="M28.747,75.455h-.294a.314.314,0,0,1,.02-.043l.242-.354a.366.366,0,0,1,.031-.034Z" transform="translate(-21.903 -67.513)" fill="#fff"/>
      </g>
      <path id="Tracé_246" data-name="Tracé 246" d="M15.779,53.426v8.616h-8.2V53.426h8.2m.267-.267H7.313V62.31h8.733V53.159Z" transform="translate(-7.206 -53.052)" fill="#fff"/>
    </g>
  </g>
</svg>
