<svg xmlns="http://www.w3.org/2000/svg" width="310" height="310" viewBox="0 0 310 310">
  <g id="Groupe_69" data-name="Groupe 69" transform="translate(-150)">
    <rect id="Basilic_CoBG" data-name="Basilic&amp;CoBG" width="310" height="310" transform="translate(150)" fill="#3d3c3f"/>
    <g id="Basilic_CoText" data-name="Basilic&amp;CoText" transform="translate(234.818 129.661)">
      <g id="Groupe_66" data-name="Groupe 66">
        <path id="Tracé_373" data-name="Tracé 373" d="M185.569,81.433V54.587h7.29c4.934,0,8.055,3.083,8.055,7.292A6.1,6.1,0,0,1,198.52,67.1a7.05,7.05,0,0,1,3.989,6.531c0,4.788-3.591,7.8-8.489,7.8Zm7.147-15.672c2.647,0,4.28-1.271,4.28-3.775,0-2.575-1.633-3.808-4.5-3.808h-3.009v7.583Zm.978,12.08c2.795,0,4.9-1.6,4.9-4.209,0-1.815-1.233-4.28-4.788-4.28h-4.316v8.489Z" transform="translate(-185.569 -54.079)" fill="#fff"/>
        <path id="Tracé_374" data-name="Tracé 374" d="M212.881,81.433l-2.974-7.91h-9.651l-2.976,7.91h-4.135L203.34,54.587h3.52l10.194,26.846Zm-7.726-21.767h-.074l-3.446,10.266h6.93Z" transform="translate(-175.078 -54.079)" fill="#fff"/>
        <path id="Tracé_375" data-name="Tracé 375" d="M215.554,61.847a3.591,3.591,0,0,0-3.772-3.882,3.737,3.737,0,0,0-3.591,3.665c0,1.886,1.269,2.974,3.882,3.808,5.8,1.85,7.943,4.028,7.943,8.67a7.838,7.838,0,0,1-8.234,8.127c-4.788,0-8.2-3.41-8.272-8.453h3.918c.036,2.9,1.741,4.862,4.354,4.862a4.212,4.212,0,0,0,4.316-4.536c0-1.96-.87-3.193-3.737-4.173-6.639-2.249-8.089-4.426-8.089-8.234a7.4,7.4,0,0,1,7.509-7.328c4.426,0,7.619,2.792,7.69,7.473Z" transform="translate(-160.729 -54.374)" fill="#fff"/>
        <path id="Tracé_376" data-name="Tracé 376" d="M212.176,81.433V54.587h3.918V81.433Z" transform="translate(-148.729 -54.079)" fill="#fff"/>
        <path id="Tracé_377" data-name="Tracé 377" d="M216.151,81.433V54.587h3.918V77.842h9.324v3.591Z" transform="translate(-143.225 -54.079)" fill="#fff"/>
        <path id="Tracé_378" data-name="Tracé 378" d="M222.816,81.433V54.587h3.918V81.433Z" transform="translate(-133.996 -54.079)" fill="#fff"/>
        <path id="Tracé_379" data-name="Tracé 379" d="M252.146,75.089a13.718,13.718,0,0,1-12.407,7.147c-7.438,0-13.568-6.677-13.568-13.824a13.893,13.893,0,0,1,26.157-6.675H247.61a9.564,9.564,0,0,0-7.545-3.772,10.111,10.111,0,0,0-9.977,10.085c0,5.623,4.245,10.595,9.76,10.595a9.616,9.616,0,0,0,7.473-3.555Z" transform="translate(-129.352 -54.374)" fill="#fff"/>
        <path id="Tracé_380" data-name="Tracé 380" d="M254.1,77.519c-2.139,3.229-4.717,4.717-7.8,4.717a8.039,8.039,0,0,1-8.2-8.017,8.206,8.206,0,0,1,5.151-7.655c-1.994-2-2.575-3.484-2.575-5.334a6.73,6.73,0,1,1,13.459-.036c0,2.866-1.56,5.043-4.5,6.458l3.555,3.482,2.938-5.911h4.245l-4.39,8.852,5.406,5.513-2.611,2.649Zm-8.27-8.308a5.089,5.089,0,0,0-3.811,4.97,4.226,4.226,0,0,0,4.28,4.464c2.068,0,3.775-1.126,5.189-3.846Zm4.388-8.127a2.946,2.946,0,0,0-2.792-3.119A2.976,2.976,0,0,0,244.6,61.23c0,1.271.727,2.394,2.287,3.811C249.461,63.734,250.221,62.682,250.221,61.084Z" transform="translate(-112.827 -54.374)" fill="#99bf0d"/>
        <path id="Tracé_381" data-name="Tracé 381" d="M274.487,75.089a13.721,13.721,0,0,1-12.407,7.147c-7.438,0-13.568-6.677-13.568-13.824a13.893,13.893,0,0,1,26.157-6.675h-4.717a9.572,9.572,0,0,0-7.545-3.772,10.109,10.109,0,0,0-9.977,10.085c0,5.623,4.245,10.595,9.758,10.595a9.612,9.612,0,0,0,7.473-3.555Z" transform="translate(-98.419 -54.374)" fill="#fff"/>
        <path id="Tracé_382" data-name="Tracé 382" d="M273.946,82.236a13.932,13.932,0,1,1,14.186-14.112A13.984,13.984,0,0,1,273.946,82.236Zm10.266-13.859c0-5.549-4.207-10.411-9.868-10.411-7.254,0-10.23,6.241-10.23,10.23,0,5.406,3.918,10.449,10.049,10.449A10.118,10.118,0,0,0,284.211,68.376Z" transform="translate(-82.239 -54.374)" fill="#fff"/>
      </g>
      <g id="Groupe_67" data-name="Groupe 67" transform="translate(0 31.599)">
        <path id="Tracé_383" data-name="Tracé 383" d="M185.569,85.929v-18.3h5.318c3.932,0,6.429,1.953,6.429,5.539s-2.449,5.542-6.405,5.542H188.24v7.223Zm5.318-9.672c2.349,0,3.758-1.114,3.758-3.093,0-2-1.459-3.09-3.784-3.09H188.24v6.183Z" transform="translate(-185.569 -67.625)" fill="#99bf0d"/>
        <path id="Tracé_384" data-name="Tracé 384" d="M192.218,70.644V67.625h2.573v3.019Zm0,15.285v-13.7h2.573v13.7Z" transform="translate(-176.363 -67.625)" fill="#99bf0d"/>
        <path id="Tracé_385" data-name="Tracé 385" d="M195.043,83.258V81.253l6.579-9.348h-5.938V69.554h8.756v2.5l-6.207,8.854h6.727v2.351Z" transform="translate(-172.451 -64.954)" fill="#99bf0d"/>
        <path id="Tracé_386" data-name="Tracé 386" d="M200.546,83.258V81.253l6.579-9.348H201.19V69.554h8.756v2.5l-6.207,8.854h6.727v2.351Z" transform="translate(-164.832 -64.954)" fill="#99bf0d"/>
        <path id="Tracé_387" data-name="Tracé 387" d="M217.942,83.473V81.344h-.05a5.21,5.21,0,0,1-4.65,2.475,7.21,7.21,0,1,1-.1-14.42,5.463,5.463,0,0,1,4.75,2.3h.05V69.769h2.571v13.7Zm.048-6.827a4.728,4.728,0,0,0-4.774-4.9,4.861,4.861,0,1,0,4.774,4.9Z" transform="translate(-157.323 -65.169)" fill="#99bf0d"/>
        <path id="Tracé_388" data-name="Tracé 388" d="M230.4,85.929V83.974h-.05a5.83,5.83,0,0,1-4.848,2.3,7.211,7.211,0,0,1-.074-14.42,5.938,5.938,0,0,1,4.724,2.053h.05V67.625h2.573v18.3ZM225.622,74.2a4.861,4.861,0,1,0,4.774,5A4.71,4.71,0,0,0,225.622,74.2Z" transform="translate(-140.145 -67.625)" fill="#99bf0d"/>
        <path id="Tracé_389" data-name="Tracé 389" d="M229.037,77.733a4.706,4.706,0,0,0,4.5,3.734,4.414,4.414,0,0,0,3.908-2.3h2.573a7.024,7.024,0,0,1-6.579,4.65,7.185,7.185,0,0,1-6.975-7.075,7.073,7.073,0,0,1,6.9-7.345,6.979,6.979,0,0,1,7.1,7.049,7.8,7.8,0,0,1-.074,1.285Zm8.856-1.979a4.45,4.45,0,0,0-8.856,0Z" transform="translate(-128.942 -65.169)" fill="#99bf0d"/>
        <path id="Tracé_390" data-name="Tracé 390" d="M239.834,85.929V74.576h-1.855V72.225h1.855v-4.6h2.573v4.6h2.251v2.351h-2.251V85.929Z" transform="translate(-113.001 -67.625)" fill="#99bf0d"/>
        <path id="Tracé_391" data-name="Tracé 391" d="M244.615,77.733a4.706,4.706,0,0,0,4.5,3.734,4.414,4.414,0,0,0,3.908-2.3H255.6a7.021,7.021,0,0,1-6.579,4.65,7.185,7.185,0,0,1-6.975-7.075,7.073,7.073,0,0,1,6.9-7.345,6.98,6.98,0,0,1,7.1,7.049,7.8,7.8,0,0,1-.074,1.285Zm8.854-1.979a4.449,4.449,0,0,0-8.854,0Z" transform="translate(-107.376 -65.169)" fill="#99bf0d"/>
        <path id="Tracé_392" data-name="Tracé 392" d="M249.958,83.473v-13.7h2.4v1.238h.048a4.13,4.13,0,0,1,3.489-1.607v2.647c-2.227.074-3.365,1.433-3.365,3.734v7.693Z" transform="translate(-96.415 -65.169)" fill="#99bf0d"/>
        <path id="Tracé_393" data-name="Tracé 393" d="M254.137,83.473v-13.7h2.4v1.238h.05a4.122,4.122,0,0,1,3.486-1.607v2.647c-2.225.074-3.362,1.433-3.362,3.734v7.693Z" transform="translate(-90.629 -65.169)" fill="#99bf0d"/>
        <path id="Tracé_394" data-name="Tracé 394" d="M265.169,83.819a7.4,7.4,0,0,1-7.3-7.149,7.4,7.4,0,0,1,14.792.05A7.352,7.352,0,0,1,265.169,83.819Zm.074-12.071a4.86,4.86,0,1,0,4.848,4.824A4.819,4.819,0,0,0,265.243,71.748Z" transform="translate(-85.457 -65.169)" fill="#99bf0d"/>
        <path id="Tracé_395" data-name="Tracé 395" d="M266.112,70.644V67.625h2.573v3.019Zm0,15.285v-13.7h2.573v13.7Z" transform="translate(-74.048 -67.625)" fill="#99bf0d"/>
        <path id="Tracé_396" data-name="Tracé 396" d="M269.542,83.473v-13.7h2.4v1.238h.05a4.122,4.122,0,0,1,3.486-1.607v2.647c-2.225.074-3.362,1.433-3.362,3.734v7.693Z" transform="translate(-69.299 -65.169)" fill="#99bf0d"/>
      </g>
    </g>
    <g id="Basilic_CoFeuille" data-name="Basilic&amp;CoFeuille" transform="translate(166.781 126.103)">
      <path id="Tracé_397" data-name="Tracé 397" d="M209.918,52.882H157.037v57.765h55.189V52.882Zm0,55.457h0V55.19h0Z" transform="translate(-157.037 -52.882)" fill="#99bf0d"/>
      <g id="Groupe_68" data-name="Groupe 68" transform="translate(10.666 6.467)">
        <path id="Tracé_398" data-name="Tracé 398" d="M203.725,76.846c-.563-1.092-1.068-2.22-1.7-3.272a35.3,35.3,0,0,0-6.107-7.9c-1.467-1.323-3.036-2.532-4.559-3.792a3.039,3.039,0,0,0-.279-.188c.234.83.541,1.664.694,2.525a12.036,12.036,0,0,1-.613,5.878,23.749,23.749,0,0,1-3.4,6.574c-.079.11-.148.222-.274.413,1.912.272,3.46-.522,5.027-1.264a7.17,7.17,0,0,1-5.585,2.051,46.511,46.511,0,0,0-4.309,7.552c4.125.975,8,1.166,11.191-2.237a4.173,4.173,0,0,1-1.2,1.631,8.1,8.1,0,0,1-3.882,1.672,21.551,21.551,0,0,1-6.155.126c-.136-.014-.274-.019-.46-.031a35.36,35.36,0,0,0-2.692,10.633c3.954,1.819,11.406,2.387,16.621-5.039-.057.124-.1.25-.172.37a12.847,12.847,0,0,1-9.541,6.737,18.471,18.471,0,0,1-6.517-.079c-.134-.024-.267-.038-.475-.069a30.173,30.173,0,0,0,.246,5.425h-1.579a25.884,25.884,0,0,1-.644-7.984,15.374,15.374,0,0,1-8.217-8.954c1.9,3.4,4.423,6.066,8.3,7.168.458-1.75.825-3.451,1.359-5.1s1.238-3.25,1.889-4.929a9.245,9.245,0,0,1-3.012-5.117,9.456,9.456,0,0,1-.088-1.967,8.033,8.033,0,0,0,3.646,6l4.574-7.8a12.881,12.881,0,0,1-.687-1.14,6.088,6.088,0,0,1-.434-1.247,4.766,4.766,0,0,1-.091-1.333,4.677,4.677,0,0,0,1.7,3.033c.37-.656.732-1.254,1.054-1.877a18.846,18.846,0,0,0,2.11-6.174,8.809,8.809,0,0,0-.963-5.778c-.055-.1-.122-.181-.222-.329-.043.15-.074.246-.1.341a7.49,7.49,0,0,1-1.955,3.517c-1.674,1.746-2.764,3.42-4.481,5.125-2.974,2.95-5.978,5.873-8.909,8.866-1.45,1.481-2.819,3.048-4.13,4.652a15.1,15.1,0,0,0-3.467,7.869,14.292,14.292,0,0,0,1.028,7.068,23.166,23.166,0,0,0,3.358,5.654c.091.114.176.236.31.417a4.054,4.054,0,0,1-.415.052c-1.04,0-2.738.019-3.772-.012a.917.917,0,0,1-.62-.305,16.011,16.011,0,0,1-3.572-8.484,14.623,14.623,0,0,1,1.414-7.543,23.448,23.448,0,0,1,4.361-6.329c2.313-2.437,4.645-4.862,7.047-7.211,2.451-2.4,5.017-4.681,7.49-7.056a37.592,37.592,0,0,0,2.871-3.1,7.162,7.162,0,0,0,1.3-7.28c-.191-.565-.391-1.123-.589-1.686h.167a58.857,58.857,0,0,1,7.421,4.993,48.819,48.819,0,0,1,7.049,6.7,32.648,32.648,0,0,1,3.627,5.244Z" transform="translate(-161.51 -55.594)" fill="#fff"/>
        <path id="Tracé_399" data-name="Tracé 399" d="M180.265,77.68h-1.812a1.936,1.936,0,0,1,.124-.265q.744-1.095,1.5-2.184a2.26,2.26,0,0,1,.193-.207Z" transform="translate(-138.05 -28.691)" fill="#fff"/>
      </g>
      <path id="Tracé_400" data-name="Tracé 400" d="M209.536,54.807v53.148H158.963V54.807h50.573m1.648-1.648H157.313v56.446h53.871V53.159Z" transform="translate(-156.655 -52.498)" fill="#fff"/>
    </g>
  </g>
</svg>
