<svg id="logo_title" xmlns="http://www.w3.org/2000/svg" width="249.717" height="130.189" viewBox="0 0 249.717 130.189">
  <g id="Groupe_89" data-name="Groupe 89" transform="translate(0 40.983)">
    <path id="Tracé_458" data-name="Tracé 458" d="M259.637,266.488h41.009v9.968H270.654v15.215h28.418v9.968H270.654v16.788h31.565v9.968H259.637Z" transform="translate(-259.637 -266.488)" fill="#49841a"/>
    <path id="Tracé_459" data-name="Tracé 459" d="M346.664,266.488h9.531l26.669,61.907h-12.59L364.5,314.23H337.657l-5.6,14.165H319.733Zm13.99,38.3L351.123,279.6l-9.706,25.183Z" transform="translate(-273.216 -266.488)" fill="#49841a"/>
    <path id="Tracé_460" data-name="Tracé 460" d="M410.664,276.456H391.691v-9.968h48.965v9.968H421.683v51.939H410.664Z" transform="translate(-289.476 -266.488)" fill="#49841a"/>
  </g>
  <g id="Groupe_90" data-name="Groupe 90" transform="translate(186.062 40.983)">
    <path id="Tracé_461" data-name="Tracé 461" d="M506.311,328.395h-6.3V266.488h6.3Z" transform="translate(-500.015 -266.488)" fill="#49841a"/>
    <path id="Tracé_462" data-name="Tracé 462" d="M547.592,328.395h-6.3V272.258H520.574v-5.77h47.742v5.77H547.592Z" transform="translate(-504.66 -266.488)" fill="#49841a"/>
  </g>
  <rect id="Rectangle_36" data-name="Rectangle 36" width="4.644" height="46.913" transform="translate(166.202)" fill="#eb1c36"/>
  <g id="Groupe_91" data-name="Groupe 91" transform="translate(1.622 111.006)">
    <path id="Tracé_463" data-name="Tracé 463" d="M261.732,361.574h3.338a15.742,15.742,0,0,1,1.872.111,5.064,5.064,0,0,1,1.67.479,3.028,3.028,0,0,1,1.2,1.08,3.5,3.5,0,0,1,.461,1.927,3.18,3.18,0,0,1-.867,2.324,4.143,4.143,0,0,1-2.4,1.125l3.707,6.013h-1.9l-3.541-5.866h-1.992v5.866h-1.55Zm1.55,5.756h1.383q.646,0,1.338-.037a4.582,4.582,0,0,0,1.273-.239,2.213,2.213,0,0,0,.959-.637,1.835,1.835,0,0,0,.379-1.245,2.036,2.036,0,0,0-.277-1.125,1.875,1.875,0,0,0-.728-.655,3.14,3.14,0,0,0-1.014-.3,8.94,8.94,0,0,0-1.135-.073h-2.177Z" transform="translate(-261.732 -357.996)"/>
    <path id="Tracé_464" data-name="Tracé 464" d="M276.292,360.53H284.5v1.44h-6.658v4.095h6.216V367.5h-6.216v4.649h6.991v1.438h-8.541Zm4.5-3.578h2.029l-2.638,2.656h-1.31Z" transform="translate(-265.022 -356.952)"/>
    <path id="Tracé_465" data-name="Tracé 465" d="M301.307,373.652a9.211,9.211,0,0,1-2.37.922,10.892,10.892,0,0,1-2.518.295,7.627,7.627,0,0,1-2.8-.5,6.554,6.554,0,0,1-2.2-1.4,6.3,6.3,0,0,1-1.448-2.167,7.316,7.316,0,0,1-.516-2.794,7.04,7.04,0,0,1,.544-2.814,6.357,6.357,0,0,1,1.5-2.158,6.963,6.963,0,0,1,2.232-1.392,7.486,7.486,0,0,1,2.748-.5,7.951,7.951,0,0,1,2.481.388,5.309,5.309,0,0,1,2.131,1.327l-1.163,1.218a4.455,4.455,0,0,0-1.614-1.107,5.1,5.1,0,0,0-1.946-.387,5.318,5.318,0,0,0-2.084.4,5.053,5.053,0,0,0-2.776,2.841,6.127,6.127,0,0,0,0,4.335,5.2,5.2,0,0,0,1.107,1.725,4.967,4.967,0,0,0,1.706,1.134,5.757,5.757,0,0,0,2.2.406,7.656,7.656,0,0,0,1.66-.194,6.6,6.6,0,0,0,1.586-.563v-4h-3.006v-1.438h4.556Z" transform="translate(-267.994 -357.9)"/>
    <path id="Tracé_466" data-name="Tracé 466" d="M312.764,361.574h1.457l5.552,13.06h-1.807l-1.328-3.209h-6.53l-1.347,3.209h-1.752Zm.7,1.993h-.036l-2.712,6.419h5.332Z" transform="translate(-271.963 -357.996)"/>
    <path id="Tracé_467" data-name="Tracé 467" d="M325.739,361.574h1.549V373.2h5.976v1.438h-7.525Z" transform="translate(-276.195 -357.996)"/>
    <path id="Tracé_468" data-name="Tracé 468" d="M337.654,361.574h8.208v1.44H339.2v4.095h6.216v1.438H339.2V373.2h6.991v1.438h-8.54Z" transform="translate(-278.887 -357.996)"/>
    <path id="Tracé_469" data-name="Tracé 469" d="M350.378,373.25l7.545-10.237h-7.434v-1.44H359.8V362.9L352.26,373.2H359.9v1.438h-9.518Z" transform="translate(-281.763 -357.996)"/>
    <path id="Tracé_470" data-name="Tracé 470" d="M369.776,361.574h1.752l4.021,10.736h.037l4.15-10.736h1.641l-5.109,13.06h-1.495Z" transform="translate(-286.146 -357.996)"/>
    <path id="Tracé_471" data-name="Tracé 471" d="M392.495,374.869a7.076,7.076,0,0,1-2.739-.516,6.566,6.566,0,0,1-2.158-1.429,6.405,6.405,0,0,1-1.42-2.177,7.641,7.641,0,0,1,0-5.478,6.4,6.4,0,0,1,1.42-2.177,6.554,6.554,0,0,1,2.158-1.429,7.513,7.513,0,0,1,5.478,0,6.554,6.554,0,0,1,2.158,1.429,6.413,6.413,0,0,1,1.42,2.177,7.641,7.641,0,0,1,0,5.478,6.416,6.416,0,0,1-1.42,2.177,6.566,6.566,0,0,1-2.158,1.429A7.077,7.077,0,0,1,392.495,374.869Zm0-1.438a5.081,5.081,0,0,0,2.094-.424,4.935,4.935,0,0,0,1.632-1.163,5.3,5.3,0,0,0,1.06-1.725,6.082,6.082,0,0,0,0-4.224,5.321,5.321,0,0,0-1.06-1.725,4.943,4.943,0,0,0-1.632-1.162,5.378,5.378,0,0,0-4.187,0,4.928,4.928,0,0,0-1.632,1.162,5.308,5.308,0,0,0-1.06,1.725,6.082,6.082,0,0,0,0,4.224,5.291,5.291,0,0,0,1.06,1.725,4.919,4.919,0,0,0,1.632,1.163A5.078,5.078,0,0,0,392.495,373.431Z" transform="translate(-289.737 -357.9)"/>
    <path id="Tracé_472" data-name="Tracé 472" d="M416.3,369.653a7.534,7.534,0,0,1-.268,2.03,4.692,4.692,0,0,1-.848,1.687,4.1,4.1,0,0,1-1.522,1.163,6.262,6.262,0,0,1-4.575,0,4.1,4.1,0,0,1-1.522-1.163,4.693,4.693,0,0,1-.848-1.687,7.5,7.5,0,0,1-.268-2.03v-8.079H408v7.859a6.9,6.9,0,0,0,.166,1.53,3.808,3.808,0,0,0,.553,1.31,2.8,2.8,0,0,0,1.033.912,4.021,4.021,0,0,0,3.246,0,2.8,2.8,0,0,0,1.033-.912,3.807,3.807,0,0,0,.553-1.31,6.9,6.9,0,0,0,.166-1.53v-7.859h1.55Z" transform="translate(-294.433 -357.996)"/>
    <path id="Tracé_473" data-name="Tracé 473" d="M429.226,363.784a2.289,2.289,0,0,0-1.033-.913,3.3,3.3,0,0,0-1.348-.286,4.07,4.07,0,0,0-1.014.128,2.984,2.984,0,0,0-.895.388,1.949,1.949,0,0,0-.637.683,1.985,1.985,0,0,0-.238,1,2.058,2.058,0,0,0,.138.784,1.652,1.652,0,0,0,.452.618,3.351,3.351,0,0,0,.848.516,11.725,11.725,0,0,0,1.311.48q.755.239,1.466.516a4.937,4.937,0,0,1,1.253.7,3.119,3.119,0,0,1,.868,1.06,4.008,4.008,0,0,1-.065,3.293,3.566,3.566,0,0,1-1.023,1.19,4.444,4.444,0,0,1-1.466.7,6.371,6.371,0,0,1-1.716.231,6.552,6.552,0,0,1-1.143-.1,5.514,5.514,0,0,1-1.1-.313,4.439,4.439,0,0,1-.987-.553,3.35,3.35,0,0,1-.793-.839l1.328-1.088a2.719,2.719,0,0,0,1.181,1.088,3.6,3.6,0,0,0,2.609.221,3.028,3.028,0,0,0,.913-.433,2.365,2.365,0,0,0,.664-.71,1.84,1.84,0,0,0,.258-.978,2.091,2.091,0,0,0-.2-.986,1.824,1.824,0,0,0-.627-.655,4.876,4.876,0,0,0-1.07-.5l-1.512-.516a9.561,9.561,0,0,1-1.291-.507,3.948,3.948,0,0,1-1.024-.7,2.99,2.99,0,0,1-.683-1,3.55,3.55,0,0,1-.248-1.393,3.366,3.366,0,0,1,1.364-2.813,4.543,4.543,0,0,1,1.421-.711,6.024,6.024,0,0,1,3.68.1,3.955,3.955,0,0,1,1.633,1.19Z" transform="translate(-297.97 -357.9)"/>
    <path id="Tracé_474" data-name="Tracé 474" d="M437.109,380.443h-1.42l1.255-4.427h1.679Z" transform="translate(-301.04 -361.26)"/>
    <path id="Tracé_475" data-name="Tracé 475" d="M458.724,364.171a3.741,3.741,0,0,0-1.458-1.19,4.3,4.3,0,0,0-1.807-.4,4.53,4.53,0,0,0-2,.442,5.031,5.031,0,0,0-1.577,1.19,5.471,5.471,0,0,0-1.033,1.735,5.816,5.816,0,0,0-.368,2.057,6.03,6.03,0,0,0,.368,2.13,5.338,5.338,0,0,0,1.024,1.716,4.8,4.8,0,0,0,1.568,1.153,5.06,5.06,0,0,0,4.159-.046,4.838,4.838,0,0,0,1.642-1.356l1.162.978a5.366,5.366,0,0,1-2.13,1.734,6.851,6.851,0,0,1-2.813.553,6.631,6.631,0,0,1-2.619-.516,6.45,6.45,0,0,1-2.112-1.429,6.587,6.587,0,0,1-1.4-2.167,7.25,7.25,0,0,1-.508-2.749,7.341,7.341,0,0,1,.489-2.694,6.484,6.484,0,0,1,6.151-4.168,6.952,6.952,0,0,1,2.554.48,4.7,4.7,0,0,1,2.057,1.567Z" transform="translate(-304.006 -357.9)"/>
    <path id="Tracé_476" data-name="Tracé 476" d="M466.572,361.574h1.55v5.534h6.973v-5.534h1.55v13.06h-1.55v-6.087h-6.973v6.087h-1.55Z" transform="translate(-308.018 -357.996)"/>
    <path id="Tracé_477" data-name="Tracé 477" d="M483.777,361.574h8.209v1.44h-6.659v4.095h6.217v1.438h-6.217V373.2h6.991v1.438h-8.541Z" transform="translate(-311.906 -357.996)"/>
    <path id="Tracé_478" data-name="Tracé 478" d="M496.5,373.25l7.544-10.237h-7.433v-1.44h9.315V362.9L498.385,373.2h7.636v1.438H496.5Z" transform="translate(-314.781 -357.996)"/>
    <path id="Tracé_479" data-name="Tracé 479" d="M515.9,361.574h1.753l4.02,10.736h.037l4.15-10.736H527.5l-5.109,13.06H520.9Z" transform="translate(-319.164 -357.996)"/>
    <path id="Tracé_480" data-name="Tracé 480" d="M538.619,374.869a7.08,7.08,0,0,1-2.739-.516,6.574,6.574,0,0,1-2.158-1.429,6.428,6.428,0,0,1-1.42-2.177,7.651,7.651,0,0,1,0-5.478,6.425,6.425,0,0,1,1.42-2.177,6.562,6.562,0,0,1,2.158-1.429,7.513,7.513,0,0,1,5.478,0,6.554,6.554,0,0,1,2.158,1.429,6.393,6.393,0,0,1,1.42,2.177,7.641,7.641,0,0,1,0,5.478,6.4,6.4,0,0,1-1.42,2.177,6.566,6.566,0,0,1-2.158,1.429A7.076,7.076,0,0,1,538.619,374.869Zm0-1.438a5.078,5.078,0,0,0,2.093-.424,4.93,4.93,0,0,0,1.633-1.163,5.317,5.317,0,0,0,1.06-1.725,6.093,6.093,0,0,0,0-4.224,5.335,5.335,0,0,0-1.06-1.725,4.939,4.939,0,0,0-1.633-1.162,5.378,5.378,0,0,0-4.187,0,4.944,4.944,0,0,0-1.632,1.162,5.323,5.323,0,0,0-1.06,1.725,6.082,6.082,0,0,0,0,4.224,5.306,5.306,0,0,0,1.06,1.725,4.936,4.936,0,0,0,1.632,1.163A5.084,5.084,0,0,0,538.619,373.431Z" transform="translate(-322.756 -357.9)"/>
    <path id="Tracé_481" data-name="Tracé 481" d="M562.424,369.653a7.5,7.5,0,0,1-.268,2.03,4.681,4.681,0,0,1-.849,1.687,4.092,4.092,0,0,1-1.521,1.163,6.262,6.262,0,0,1-4.575,0,4.1,4.1,0,0,1-1.522-1.163,4.693,4.693,0,0,1-.848-1.687,7.507,7.507,0,0,1-.268-2.03v-8.079h1.55v7.859a6.9,6.9,0,0,0,.166,1.53,3.8,3.8,0,0,0,.553,1.31,2.79,2.79,0,0,0,1.033.912,4.021,4.021,0,0,0,3.246,0,2.8,2.8,0,0,0,1.033-.912,3.794,3.794,0,0,0,.553-1.31,6.9,6.9,0,0,0,.166-1.53v-7.859h1.55Z" transform="translate(-327.451 -357.996)"/>
    <path id="Tracé_482" data-name="Tracé 482" d="M575.349,363.784a2.282,2.282,0,0,0-1.033-.913,3.3,3.3,0,0,0-1.347-.286,4.076,4.076,0,0,0-1.015.128,2.989,2.989,0,0,0-.894.388,1.942,1.942,0,0,0-.637.683,1.984,1.984,0,0,0-.239,1,2.058,2.058,0,0,0,.139.784,1.642,1.642,0,0,0,.452.618,3.35,3.35,0,0,0,.848.516,11.713,11.713,0,0,0,1.31.48q.756.239,1.466.516a4.942,4.942,0,0,1,1.254.7,3.11,3.11,0,0,1,.867,1.06,4,4,0,0,1-.065,3.293,3.549,3.549,0,0,1-1.023,1.19,4.436,4.436,0,0,1-1.466.7,6.369,6.369,0,0,1-1.715.231,6.554,6.554,0,0,1-1.144-.1,5.512,5.512,0,0,1-1.1-.313,4.435,4.435,0,0,1-.986-.553,3.34,3.34,0,0,1-.794-.839l1.328-1.088a2.726,2.726,0,0,0,1.181,1.088,3.6,3.6,0,0,0,2.61.221,3.037,3.037,0,0,0,.912-.433,2.374,2.374,0,0,0,.664-.71,1.84,1.84,0,0,0,.258-.978,2.081,2.081,0,0,0-.2-.986,1.815,1.815,0,0,0-.626-.655,4.9,4.9,0,0,0-1.071-.5l-1.512-.516A9.643,9.643,0,0,1,570.48,368a3.96,3.96,0,0,1-1.024-.7,2.988,2.988,0,0,1-.682-1,3.535,3.535,0,0,1-.249-1.393,3.364,3.364,0,0,1,1.365-2.813,4.539,4.539,0,0,1,1.42-.711,6.027,6.027,0,0,1,3.681.1,3.958,3.958,0,0,1,1.632,1.19Z" transform="translate(-330.988 -357.9)"/>
  </g>
</svg>
